<?xml version="1.0" encoding="UTF-8"?>
<svg version="1.1" viewBox="0 0 1352 1600" width="1280" height="1280" xmlns="http://www.w3.org/2000/svg">
<path transform="translate(333 134)" d="m0 0c4.22 0.00777 8.45-0.00223 12.7-0.00973 7.37-0.0107 14.7-0.0106 22.1-0.00286 11 0.0114 21.9 0.0055 32.9-0.00362 19.6-0.0157 39.1-0.0145 58.7-0.00576 17.1 0.00757 34.2 0.00951 51.4 0.00593 1.14-2.29e-4 2.28-4.58e-4 3.45-6.94e-4 4.62-9.34e-4 9.25-0.00189 13.9-0.00288 43.3-0.00916 86.6-8.82e-4 130 0.0153 38.4 0.0142 76.9 0.013 115-0.00138 43.2-0.0161 86.5-0.0224 130-0.0132 4.61 9.62e-4 9.23 0.0019 13.8 0.00283 1.7 3.56e-4 1.7 3.56e-4 3.44 7.19e-4 17.1 0.0034 34.2-5.63e-4 51.3-0.00816 19.5-0.0086 38.9-0.0064 58.4 0.00984 10.9 0.00878 21.8 0.00943 32.6-0.00194 7.28-0.00677 14.6-0.00246 21.8 0.0105 4.14 0.00708 8.27 0.0097 12.4-0.00122 47.2-0.115 47.2-0.115 61.5 5.39 1.22 0.391 2.44 0.781 3.69 1.18 1.29 0.418 2.58 0.836 3.87 1.25 0.646 0.204 1.29 0.409 1.96 0.619 3.85 1.26 7.08 2.76 10.5 4.94 1.18 0.687 2.36 1.37 3.55 2.04 0.923 0.527 0.923 0.527 1.87 1.06 0.626 0.356 1.25 0.713 1.9 1.08 0.645 0.368 1.29 0.736 1.96 1.12 1.58 0.9 3.15 1.8 4.73 2.7v2c0.722 0.268 1.44 0.536 2.19 0.812 5.36 2.27 8.22 4.64 11.8 9.19 1.83 1.61 3.7 3.15 5.61 4.67 0.459 0.44 0.918 0.879 1.39 1.33v2c0.99 0.33 1.98 0.66 3 1 2.91 3.13 5.43 6.58 8 10 0.814 1.06 0.814 1.06 1.64 2.14 4.82 6.68 7.46 14.2 10.4 21.9 0.726 1.75 1.45 3.5 2.19 5.25 1.79 4.44 3.03 8.96 4.2 13.6 0.414 2.12 0.414 2.12 1.61 3.15 0.226 1.48 0.394 2.98 0.535 4.47 0.087 0.899 0.174 1.8 0.264 2.72 0.087 0.946 0.174 1.89 0.264 2.87 0.0909 0.949 0.182 1.9 0.275 2.88 0.225 2.35 0.445 4.71 0.662 7.06 0.87 0.1 1.74 0.2 2.64 0.304 32.9 3.83 32.9 3.83 48.4 7.7 0.982 0.245 1.96 0.49 2.98 0.742 5.32 1.46 10.2 3.59 15.2 5.95 2.85 1.31 5.73 2.43 8.65 3.55 4.83 2 9.21 4.4 13.6 7.19 0.869 0.539 0.869 0.539 1.76 1.09 4.14 2.7 6.94 5.51 9.81 9.47 2.74 17.4-11.8 36.7-20.4 50.8-0.526 0.718-1.05 1.44-1.59 2.18h-2c-0.402 0.874-0.402 0.874-0.812 1.77-1.2 2.26-2.53 4.04-4.19 5.98-0.516 0.614-1.03 1.23-1.56 1.86-1.44 1.39-1.44 1.39-3.44 1.39-0.227 0.536-0.454 1.07-0.688 1.62-3.6 6.52-10.1 14-17.3 16.4v2c-12.3 10.6-36.1 28-53 28 9.22e-4 0.997 0.00184 1.99 0.00279 3.02 0.0222 24.2 0.0386 48.5 0.049 72.7 0.00516 11.7 0.0122 23.4 0.0236 35.2 0.00995 10.2 0.0164 20.4 0.0186 30.6 0.00131 5.41 0.00439 10.8 0.0116 16.2 0.00677 5.09 0.00889 10.2 0.00738 15.3 2.76e-4 1.87 0.00228 3.74 0.0061 5.61 0.00495 2.55 0.00379 5.1 0.00105 7.64 0.00291 0.746 0.00583 1.49 0.00883 2.26-0.00905 3.1-0.141 5.5-1.13 8.46 0.932-0.531 1.86-1.06 2.82-1.61 8.19-4.58 16.1-8 25.2-10.4 1.21-0.36 1.21-0.36 2.44-0.727 6.66-1.95 13.1-2.99 20-3.52 1-0.0808 2.01-0.162 3.04-0.245 19.1-1.4 19.1-1.4 27.5 3.49 2.25 2.38 2.25 2.38 4 5 0.835 1.24 0.835 1.24 1.69 2.5 2.55 4.86 2.46 9.81 2.45 15.2 9.57e-4 0.739 0.00191 1.48 0.0029 2.24 6.79e-4 1.56-0.00115 3.13-0.00534 4.69-0.00529 2.35-7.68e-5 4.7 0.00635 7.04 0.0075 12.4-0.487 24.6-3.07 36.8-0.17 0.845-0.339 1.69-0.514 2.56-0.917 4.46-2.03 8.7-3.55 13-0.499 1.65-0.499 1.65-1.01 3.34-2.77 8.93-6.43 16.8-11 24.9-1.41 2.5-2.74 5.05-4.09 7.59-2.69 4.91-5.68 9.53-8.88 14.1-0.615 0.906-1.23 1.81-1.86 2.75-4.88 7.13-4.88 7.13-7.14 8.25-0.33 0.99-0.66 1.98-1 3-1.94 2.19-1.94 2.19-4 4h-2c-0.402 0.897-0.402 0.897-0.812 1.81-1.19 2.19-2.28 3.6-4.19 5.19h-2c-0.33 0.99-0.66 1.98-1 3-4.46 4-4.46 4-7 4-0.33 0.99-0.66 1.98-1 3-2.43 2.04-2.43 2.04-5.44 4.19-0.989 0.715-1.98 1.43-3 2.17-2.57 1.64-2.57 1.64-4.57 1.64v2c-1.29 0.672-2.58 1.34-3.88 2-0.719 0.371-1.44 0.742-2.18 1.12-1.95 0.875-1.95 0.875-3.95 0.875-0.173 11.7-0.339 23.4-0.5 35.1-0.0178 1.29-0.0178 1.29-0.036 2.61-0.39 28.4-0.609 56.9-0.464 85.3 0.646-0.00444 1.29-0.00888 1.96-0.0135 6.75-0.0444 13.5-0.0745 20.2-0.0964 2.52-0.01 5.03-0.0237 7.55-0.041 3.62-0.0244 7.25-0.0356 10.9-0.0444 1.68-0.0155 1.68-0.0155 3.39-0.0313 15.6-0.00222 15.6-0.00222 21.6 5.63 5.25 6.11 7.11 12 6.98 19.9 0.00498 0.897 0.00996 1.79 0.0151 2.72 0.0105 2.98-0.0145 5.96-0.0396 8.95 2.27e-4 2.15 0.00264 4.3 0.00708 6.44 0.00569 5.82-0.0195 11.6-0.0507 17.4-0.0276 6.09-0.0275 12.2-0.0307 18.3-0.0092 10.2-0.0367 20.5-0.0771 30.7-0.0568 14.4-0.0792 28.8-0.0953 43.3-0.0125 9.99-0.0331 20-0.0554 30-0.00536 2.42-0.0105 4.84-0.0154 7.26-0.0143 6.9-0.0338 13.8-0.0615 20.7-0.00771 2.09-0.0138 4.18-0.0181 6.27-0.00624 2.85-0.0186 5.71-0.0326 8.56-4.98e-4 0.826-9.96e-4 1.65-0.00151 2.5-0.0872 13.2-0.0872 13.2-5.53 19-0.791 0.853-1.58 1.71-2.4 2.59-3.39 3.11-6.19 3.17-10.6 3.24-1.1 0.0199-2.2 0.0399-3.34 0.0604-1.19 0.0167-2.38 0.0334-3.6 0.0506-1.22 0.0208-2.43 0.0416-3.69 0.063-3.89 0.0655-7.78 0.124-11.7 0.183-2.64 0.0432-5.27 0.0868-7.91 0.131-6.47 0.107-12.9 0.209-19.4 0.307-0.266 1.15-0.533 2.29-0.807 3.48-0.357 1.53-0.715 3.06-1.07 4.59-0.175 0.753-0.349 1.51-0.529 2.28-2.26 9.67-5.02 18.9-9.31 27.8-1.42 3.12-2.56 6.29-3.72 9.51-1.84 4.9-3.95 8.74-7.33 12.7-1.45 1.68-1.45 1.68-2.23 4.59-1.15 1.18-2.3 2.36-3.49 3.49-1.69 1.69-3.21 3.49-4.76 5.32-8.62 9.9-19.3 17.9-30.8 24.2-0.688 0.449-1.38 0.897-2.09 1.36-6.95 4.48-14.2 7.29-22 9.97-1.67 0.583-3.34 1.2-4.99 1.83-20.9 7.33-44 6.28-65.8 6.23-4.26-0.00771-8.52 0.00221-12.8 0.00973-7.44 0.0108-14.9 0.0105-22.3 0.00286-11.1-0.0114-22.1-0.00552-33.2 0.00362-19.8 0.0158-39.5 0.0144-59.3 0.00576-17.3-0.00756-34.6-0.00951-51.9-0.00593-1.15 2.29e-4 -2.3 4.58e-4 -3.48 6.94e-4 -4.67 9.34e-4 -9.33 0.00189-14 0.00288-43.7 0.00917-87.4 8.71e-4 -131-0.0153-38.8-0.0142-77.6-0.013-116 0.00138-43.7 0.0161-87.3 0.0224-131 0.0132-4.65-9.62e-4 -9.31-0.0019-14-0.00283-1.15-2.37e-4 -2.29-4.74e-4 -3.47-7.19e-4 -17.3-0.00341-34.6 5.72e-4 -51.9 0.00816-19.7 0.00858-39.3 0.00642-59-0.00984-11-0.0088-22-0.0094-33 0.00194-7.35 0.00674-14.7 0.00251-22.1-0.0105-4.18-0.00711-8.37-0.00963-12.5 0.00122-24.1 0.0578-46.5-0.824-68.7-11.4-2.35-1.08-4.71-2.17-7.06-3.25-1.98-0.916-3.96-1.83-5.94-2.75v-2c-1.07-0.373-1.07-0.373-2.15-0.754-3.17-1.39-5.64-3.12-8.41-5.18l-2.82-2.09c-0.865-0.651-1.73-1.3-2.62-1.97-0.772-0.538-1.54-1.08-2.34-1.63-0.548-0.452-1.1-0.905-1.66-1.37v-2l-1.8-0.848c-8.11-4.25-16.3-13-19.5-21.5-0.244-0.877-0.487-1.75-0.738-2.66h-2l-0.953-2.34c-0.888-2.16-1.8-4.32-2.72-6.46-1.33-3.19-1.33-3.19-2.09-5.66-0.826-2.35-1.47-3.75-3.23-5.53-4.24-1.62-8.52-2.32-13-3-11.8-2.08-23.1-6.96-34-12v-2l-2.31-0.625c-5.21-1.94-9.88-4.61-14.7-7.38-0.868-0.469-1.74-0.938-2.63-1.42-24.4-14.1-40-40.9-49.4-66.6-0.541-1.42-1.08-2.83-1.62-4.25-13.6-37.2-11.2-75.3 3.62-112 0.546-1.36 0.546-1.36 1.1-2.76 4.78-11.8 9.4-22.6 17.9-32.2 0.567-0.701 1.13-1.4 1.72-2.12 2.79-3.41 5.64-6.35 9.28-8.88h2v-2c1.58-1.45 1.58-1.45 3.81-3.12 0.826-0.623 1.65-1.25 2.5-1.89 0.886-0.656 1.77-1.31 2.68-1.99 0.855-0.646 1.71-1.29 2.59-1.96 13.7-10.2 28.2-18.6 44.4-24 0.701-0.254 1.4-0.508 2.12-0.77 4.98-1.76 10-3.06 15.2-4.32 0.741-0.184 1.48-0.368 2.25-0.558 1.82-0.451 3.63-0.9 5.45-1.35 0.0233-14.8 0.041-29.6 0.0518-44.4 0.00516-6.88 0.0122-13.8 0.0236-20.6 0.011-6.63 0.0168-13.3 0.0194-19.9 0.00185-2.53 0.00547-5.07 0.0109-7.6 0.00723-3.54 0.00826-7.08 0.0078-10.6 0.00539-1.58 0.00539-1.58 0.0109-3.2-0.00206-1.45-0.00206-1.45-0.00417-2.92 9.22e-4 -0.838 0.00184-1.68 0.00279-2.54-0.0397-2.34-0.0397-2.34-1.12-5.15-1.64-0.725-3.31-1.38-5-2-8.76-5.08-16.9-10.7-24-18-0.928-0.722-1.86-1.44-2.81-2.19-3.64-2.95-6.33-6.61-9.16-10.3-2.01-2.57-2.01-2.57-4.47-4.93-2.74-2.76-5.04-5.65-7.37-8.76-1.19-1.57-1.19-1.57-2.39-3.17-1.79-2.64-1.79-2.64-1.79-4.64h-2c-0.291-0.545-0.583-1.09-0.883-1.65-2.17-3.99-4.41-7.85-6.99-11.6-7.21-10.7-11.6-21.4-15.1-33.8-0.344-1.01-0.688-2.01-1.04-3.05-3.37-10.4-4.3-21.3-5.14-32.1-0.0838-1.07-0.168-2.14-0.254-3.24-0.712-10-0.867-20-0.184-30 0.0696-1.11 0.139-2.22 0.211-3.37 0.846-6.52 2.98-11.9 7.85-16.4 5.92-4.05 13.1-2.93 20-2.94 1.21-0.0122 2.42-0.0245 3.66-0.0371 19.6-0.0315 38 4.28 54.3 15.5 2.39 1.93 2.39 1.93 4.64 1.75-0.0116-0.891-0.0232-1.78-0.0352-2.7-0.0674-9.83 0.182-19.6 0.539-29.4 0.048-1.35 0.0959-2.7 0.144-4.05 0.116-3.27 0.234-6.54 0.352-9.81-0.965 0.00968-1.93 0.0194-2.93 0.0293-9.14 0.085-18.3 0.117-27.4 0.0976-4.7-0.00817-9.39 0.00185-14.1 0.0547-4.54 0.0504-9.08 0.0513-13.6 0.0193-1.72-0.00373-3.45 0.00979-5.17 0.0415-8.87 0.152-15.4 0.0669-22.3-5.88-12.1-12.2-7.63-39.4-7.64-55.2-0.00464-2.69-0.00964-5.38-0.015-8.08-0.0135-7.27-0.0196-14.5-0.024-21.8-0.00278-4.54-0.00702-9.09-0.0115-13.6-0.0122-12.6-0.0225-25.2-0.0259-37.8-3.29e-4 -1.2-3.29e-4 -1.2-6.65e-4 -2.43-3.27e-4 -1.21-3.27e-4 -1.21-6.61e-4 -2.44-4.43e-4 -1.63-8.9e-4 -3.26-0.00134-4.89-2.21e-4 -0.809-4.43e-4 -1.62-6.71e-4 -2.45-0.00396-13.1-0.0215-26.3-0.0447-39.4-0.0237-13.5-0.0362-27-0.0373-40.6-9.16e-4 -7.58-0.00666-15.2-0.0248-22.7-0.0154-6.44-0.0205-12.9-0.0123-19.3 0.00391-3.29 0.00134-6.57-0.0111-9.86-0.0126-3.56-0.00688-7.12 0.00358-10.7-0.00806-1.04-0.0161-2.08-0.0244-3.14 0.0434-6.3 0.64-10.9 5.15-15.7l1.81-1.45c0.599-0.491 1.2-0.982 1.82-1.49 10.2-7.58 34-3.25 46.1-3.18 18.3 0.371 18.3 0.371 36.6-1.02 1.6-1.6 1.47-3.54 1.81-5.75 3.06-17.5 10.1-34.3 22.4-47.3 2-2.07 2-2.07 4.2-5.01 3.13-3.5 6.61-6.24 10.3-9.11 1.92-1.53 3.58-3.1 5.3-4.83 5.6-4 5.6-4 8-4v-2c10.7-6.07 20.9-10.5 33-13 0.33-0.33 0.66-0.66 1-1 4.6-0.706 9.24-1.1 13.9-1.54 0.713-0.0679 1.43-0.136 2.16-0.206 16.2-1.5 32.3-1.68 48.6-1.64zm233 64.9c-1.5 0.00896-1.5 0.00896-3.03 0.0181-17.3 0.104-34.5 0.21-51.8 0.329-1.51 0.0104-3.02 0.0207-4.54 0.0311-2.72 0.0187-5.44 0.0381-8.17 0.0579-1.82 0.0126-1.82 0.0126-3.68 0.0255-1.74 0.0128-1.74 0.0128-3.52 0.0259-2.6 0.00867-5.19 0.00363-7.79-0.0175-1.03-0.00648-1.03-0.00648-2.09-0.0131-1.93-0.0134-3.85-0.0324-5.78-0.0518-2.89-0.114-2.89-0.114-4.96 1.09 0.0844 9.06 0.179 18.1 0.288 27.2 0.0499 4.21 0.0963 8.41 0.134 12.6 0.0369 4.06 0.0832 8.12 0.136 12.2 0.0185 1.55 0.0336 3.1 0.0453 4.65 0.0169 2.17 0.0459 4.34 0.0778 6.51 0.02 1.85 0.02 1.85 0.0404 3.74 0.264 2.98 0.623 4.68 2.28 7.14 1.86 0.949 1.86 0.949 4.06 1.44 5.12 1.5 11.1 3.71 14.9 7.56 5.77 0.565 8.43-0.548 13-4 3.01-1.78 5.29-2.28 8.78-2.41 1.01-0.0379 2.01-0.0758 3.05-0.115 1.14-0.0302 2.27-0.0604 3.45-0.0915 1.25-0.0375 2.5-0.0751 3.79-0.114 21.9-0.596 43.8-0.437 65.7-0.439 3.99-7.17e-4 7.98-0.0028 12-0.0055 13.2-0.00875 26.5-0.0134 39.7-0.0127 0.707 4e-5 1.41 7.99e-5 2.14 1.21e-4 0.708 4.09e-5 1.42 8.18e-5 2.15 1.24e-4 11.5 4.09e-4 23.1-0.00923 34.6-0.0233 11.9-0.0144 23.8-0.0213 35.7-0.0204 6.66 3.31e-4 13.3-0.00258 20-0.0132 6.24-0.00967 12.5-0.00977 18.7-0.00248 2.29 0.00105 4.58-0.00132 6.86-0.00736 3.12-0.00772 6.25-0.00308 9.37 0.00463 1.35-0.00772 1.35-0.00772 2.73-0.0156 12.6 0.0684 12.6 0.0684 17.1 3.74 0.353 0.525 0.706 1.05 1.07 1.59 1.8 2.97 1.8 2.97 4.12 3.94 3.89 6.45 4.06 12.7 3 20-1.32 2.78-2.76 4.95-4.69 7.33-1.52 1.58-1.52 1.58-1.31 3.67-13 6.75-31.2 4.14-45.6 4.13-2.47 0.00136-4.94 0.00314-7.41 0.00531-5.98 0.00407-12 0.0035-17.9 5.87e-4 -4.87-0.00227-9.73-0.00256-14.6-0.00148-1.04 2.3e-4 -1.04 2.3e-4 -2.11 4.64e-4 -1.41 3.2e-4 -2.83 6.44e-4 -4.24 9.73e-4 -13.2 0.00284-26.4-4.15e-4 -39.7-0.0058-11.3-0.00447-22.6-0.00369-33.9 9.19e-4 -13.2 0.00537-26.4 0.00745-39.5 0.00439-1.41-3.19e-4 -2.82-6.33e-4 -4.23-9.43e-4 -0.693-1.54e-4 -1.39-3.09e-4 -2.1-4.68e-4 -4.85-8.59e-4 -9.7 5.84e-4 -14.6 0.00295-6.55 0.00312-13.1 8.56e-4 -19.6-0.00489-2.39-0.00131-4.79-9.57e-4 -7.18 0.00126-35.6 0.0299-35.6 0.0299-40.3-3.13-2.4-0.319-2.4-0.319-5.06-0.25-0.878-0.00516-1.76-0.0103-2.66-0.0156-2.69 0.218-4.99 0.637-7.6 1.24-6.57 1.33-13.1 1.48-19.8 1.66-1.32 0.0416-2.64 0.0831-3.99 0.126-3.47 0.109-6.94 0.209-10.4 0.306-3.55 0.101-7.11 0.212-10.7 0.322-6.95 0.214-13.9 0.417-20.8 0.613-1.63 2.88-2.25 4.95-2.27 8.26-0.0146 1.26-0.0146 1.26-0.0294 2.55-5.89e-4 0.916-0.00118 1.83-0.00179 2.78-0.0127 1.46-0.0127 1.46-0.0256 2.94-0.0258 3.21-0.0379 6.42-0.0504 9.63-0.0162 2.23-0.0334 4.46-0.0515 6.69-0.0457 5.87-0.0805 11.7-0.112 17.6-0.0519 9.4-0.117 18.8-0.188 28.2-0.0229 3.29-0.0391 6.58-0.0547 9.86-0.0134 2.01-0.027 4.02-0.0409 6.03-0.00261 0.918-0.00523 1.84-0.00792 2.78-0.0069 0.84-0.0138 1.68-0.0209 2.54-0.00385 0.729-0.00771 1.46-0.0117 2.21-0.332 4.79-2.73 6.82-6.13 9.92-5.21 4.23-9.92 4.97-16.4 5.75-0.927 0.125-1.85 0.25-2.81 0.379-2.27 0.304-4.54 0.594-6.82 0.871-1.19 4.99-1.3 10-1.43 15.1-0.201 4.43-0.884 7.33-3.57 10.9-5.75 4.11-14.8 3.2-21.5 3.32-0.989 0.0208-1.98 0.0416-3 0.063-3.14 0.065-6.28 0.124-9.41 0.183-2.14 0.0432-4.27 0.0868-6.41 0.131-5.22 0.107-10.4 0.207-15.7 0.307v35h48c0.99-7.92 0.99-7.92 2-16 2.87-6.71 4.65-10.5 11-14 7.64-1.46 14.8 0.335 22 3v2c0.99 0.33 1.98 0.66 3 1 0.33 0.66 0.66 1.32 1 2h2c0.667 1.67 1.33 3.33 2 5 0.34 0.781 0.681 1.56 1.03 2.37 4 10.9 2.08 24.9 1.99 36.3-0.00696 1.03-0.0139 2.06-0.0211 3.12-0.0372 5.43-0.0811 10.9-0.131 16.3-0.0496 5.59-0.0756 11.2-0.0964 16.8-0.0204 4.32-0.0582 8.64-0.101 13-0.0173 2.06-0.028 4.12-0.0319 6.19-0.00709 2.88-0.039 5.76-0.0769 8.64 0.00346 0.844 0.00692 1.69 0.0105 2.56-0.135 6.97-2.43 12-7.32 17.1-4.15 3.87-8.52 4.73-14 4.64-5.69-0.405-10.8-0.779-15.2-4.76-0.583-0.683-1.17-1.37-1.77-2.07-0.593-0.678-1.19-1.36-1.8-2.05-2.43-3.46-2.58-6.79-2.66-10.9-0.0199-0.961-0.0399-1.92-0.0604-2.91-0.0251-1.54-0.0251-1.54-0.0506-3.12-0.0208-1.06-0.0416-2.12-0.063-3.21-0.0653-3.38-0.124-6.77-0.183-10.1-0.0432-2.29-0.0868-4.59-0.131-6.88-0.107-5.62-0.209-11.2-0.307-16.9-2.54-1.27-4.32-1.13-7.16-1.14-1.09-0.00571-2.19-0.0114-3.31-0.0173-1.21-0.00112-2.41-0.00224-3.65-0.00339-1.27-0.00496-2.53-0.00993-3.83-0.015-3.48-0.0131-6.95-0.0196-10.4-0.024-2.17-0.00293-4.34-0.00703-6.51-0.0115-6.78-0.0137-13.6-0.0233-20.3-0.0272-7.84-0.00449-15.7-0.0221-23.5-0.051-6.05-0.0216-12.1-0.0317-18.2-0.033-3.62-0.00105-7.24-0.00701-10.9-0.0248-4.03-0.0195-8.06-0.0152-12.1-0.00869-1.21-0.00921-2.41-0.0184-3.65-0.0279-1.09 0.00557-2.19 0.0111-3.31 0.0169-1.43-0.0022-1.43-0.0022-2.89-0.00444-1.12 0.184-1.12 0.184-2.27 0.372-2.16 3.23-2.25 4.08-2.24 7.8-0.00275 0.989-0.0055 1.98-0.00833 3 0.00719 1.08 0.0144 2.17 0.0218 3.28-2.92e-4 1.14-5.84e-4 2.28-8.85e-4 3.46 0.0014 3.78 0.017 7.56 0.0326 11.3 0.00373 2.62 0.00658 5.24 0.00858 7.86 0.00622 6.19 0.0226 12.4 0.0427 18.6 0.0223 7.05 0.0333 14.1 0.0434 21.2 0.0209 14.5 0.0561 29 0.101 43.5 1.65-0.66 3.3-1.32 5-2v-2c0.536-0.227 1.07-0.454 1.62-0.688 2.55-1.3 2.55-1.3 5.06-3.62 3.76-3.21 7.96-5.38 12.3-7.69 1.77-0.979 3.54-1.96 5.31-2.94 1.89-1.02 3.79-2.05 5.69-3.06 0.96-0.519 1.92-1.04 2.91-1.57 11.7-6.14 24.7-10.8 38.1-9.43 5.36 1.72 8.36 5.12 11 10 4.92 10.6 1.14 22.4-2 33-0.557 1.39-0.557 1.39-1.12 2.8-1.01 2.53-1.03 4.5-0.875 7.2h-2c-0.343 0.599-0.685 1.2-1.04 1.82-7.95 13.9-7.95 13.9-9.52 16.6-0.891 1.56-1.78 3.13-2.65 4.7-2.21 3.96-4.47 6.74-7.79 9.84-1.48 1.52-2.96 3.04-4.44 4.56-2.56 2.58-4.95 4.86-8.06 6.75-2.95 1.58-2.95 1.58-3.5 5.69 29.7-0.33 59.4-0.66 90-1 0.17-22.4 0.17-22.4 0.298-44.8 0.0454-4.35 0.0454-4.35 0.0717-6.39 0.0145-1.41 0.0214-2.83 0.022-4.24 0.011-9.75 0.4-15.8 7.05-23.3 5.55-4.88 9.35-5.74 16.6-5.54 6.62 0.643 11.2 3.63 15.9 8.29 3.57 6.04 4.15 11 4.13 17.9 0.00141 0.797 0.00282 1.59 0.00427 2.42 0.00216 2.65-0.00423 5.3-0.0121 7.94-0.00155 0.909-0.0031 1.82-0.0047 2.75-0.0291 14.7-0.18 29.4-0.44 44-0.0369 2.12-0.0709 4.25-0.102 6.37-0.0452 2.99-0.103 5.98-0.165 8.96-0.0116 0.886-0.0231 1.77-0.035 2.68-0.113 4.69-0.608 8.51-2.38 12.9-0.309 0.928-0.619 1.86-0.938 2.81-0.351 0.722-0.701 1.44-1.06 2.19-0.99 0.33-1.98 0.66-3 1-0.756 0.809-1.51 1.62-2.29 2.45-7.74 7.28-21.8 5.99-31.9 5.97-1.46 0.0074-2.92 0.0161-4.38 0.026-3.91 0.0231-7.82 0.0285-11.7 0.0307-4.11 0.00571-8.21 0.029-12.3 0.0506-7.76 0.0383-15.5 0.0627-23.3 0.0811-13.9 0.0336-27.9 0.0911-41.8 0.154-4.89 0.0215-9.77 0.0368-14.7 0.0468-3.03 0.00699-6.05 0.0179-9.08 0.0296-1.41 0.00457-2.81 0.00741-4.22 0.00842-1.91 0.00156-3.83 0.00967-5.74 0.0182-1.07 0.00256-2.14 0.00511-3.25 0.00775-2.35-0.14-2.35-0.14-3.4 1.13-0.0954 1.37-0.122 2.74-0.12 4.11-0.00137 0.885-0.00275 1.77-0.00417 2.68 0.0036 0.978 0.00719 1.96 0.0109 2.96-1.46e-4 1.02-2.92e-4 2.05-4.43e-4 3.1 7e-4 3.4 0.00849 6.81 0.0163 10.2 0.00186 2.35 0.00329 4.71 0.00429 7.06 0.00383 6.21 0.0137 12.4 0.0247 18.6 0.0102 6.33 0.0148 12.7 0.0198 19 0.0107 12.4 0.0278 24.9 0.0488 37.3 5.37 2.37 5.37 2.37 10.9 4.18 0.678 0.185 1.36 0.37 2.05 0.561 0.701 0.19 1.4 0.38 2.13 0.576 7.69 2.17 14.7 5.1 21.9 8.69 0.859 0.4 1.72 0.799 2.6 1.21 10.6 5.01 21.6 11.6 29 20.9 2.55 3.01 5.14 4.75 8.44 6.88 0.99 1.48 0.99 1.48 2 3h2c0.246 0.54 0.492 1.08 0.746 1.64 1.55 2.91 3.4 5.49 5.32 8.18 8.5 12.2 15.4 24 19.9 38.2 0.227 0.694 0.453 1.39 0.687 2.1 12.9 40 11.2 82.1-7.69 120-1.32 2.37-2.66 4.72-4.05 7.05-1.17 2.03-1.17 2.03-0.953 4.95-0.99 0.33-1.98 0.66-3 1-1.25 1.86-1.25 1.86-2.31 4.12-2.09 4-4.47 7.18-7.55 10.5-1.35 1.37-1.35 1.37-1.14 3.41h-2c-1.64 1.58-1.64 1.58-3.31 3.62-0.616 0.727-1.23 1.45-1.87 2.2-0.601 0.717-1.2 1.43-1.82 2.17-0.518 0.593-1.04 1.19-1.57 1.8-2.62 2.71-2.62 2.71-3.43 6.2-0.575 0.285-1.15 0.57-1.74 0.864-2.14 1.08-4.26 2.18-6.38 3.31-13.8 7.3-27.7 14.3-41.9 20.8 0.556 2.75 0.767 3.78 2.88 5.75 2.15 1.5 2.15 1.5 5.12 1.25v2c3.64 1.72 7.31 3.38 11 5 0.694 0.307 1.39 0.614 2.1 0.93 13.2 5.1 29.3 4.42 43.2 4.69 1.73 0.0378 3.46 0.0757 5.19 0.114 18.4 0.382 36.9 0.422 55.3 0.399 4.76-0.00586 9.52-0.00229 14.3 0.00357 3.72 0.00359 7.43 0.00248 11.1-1.28e-4 1.76-6.65e-4 3.52 1.46e-4 5.28 0.00248 2.42 0.00252 4.83-0.00129 7.25-0.0069 0.719 0.00202 1.44 0.00405 2.18 0.00613 3.29 0.269 3.29 0.269 6.01-1.14 0.0995-2.13 0.128-4.27 0.129-6.4 0.00175-0.668 0.0035-1.34 0.00531-2.03 0.00442-2.22 0.00148-4.44-0.00189-6.66 6.73e-4 -1.54 0.00164-3.08 0.0029-4.62 0.00148-3.23-6.78e-4 -6.46-0.00534-9.69-0.00569-4.14-0.00242-8.28 0.00357-12.4 0.00361-3.18 0.00246-6.36-1.28e-4 -9.54-6.68e-4 -1.53 1.53e-4 -3.05 0.00248-4.58 0.00254-2.14-0.00133-4.27-0.0069-6.41-7.96e-4 -1.22-0.00159-2.43-0.00241-3.69 0.00739-3.03 0.00739-3.03-1.13-5.97-1.6 0.0157-1.6 0.0157-3.23 0.0317-3.96 0.0363-7.92 0.0592-11.9 0.0781-1.71 0.01-3.42 0.0237-5.14 0.041-2.46 0.0243-4.93 0.0356-7.39 0.0444-1.14 0.0155-1.14 0.0155-2.31 0.0313-7.3 0.00153-12.8-2.25-18.1-7.23-4.76-6.98-5.73-13.4-5.66-21.7-0.0106-1.13-0.0212-2.27-0.0322-3.43-0.0292-3.77-0.0229-7.55-0.0164-11.3-0.0106-2.71-0.0286-5.43-0.046-8.14-0.0376-6.59-0.0477-13.2-0.047-19.8 3.58e-4 -5.36-0.00758-10.7-0.0213-16.1-0.0424-16.9-0.0549-33.7-0.0453-50.6 0.00639-13.3-0.0336-26.6-0.0949-39.9-0.0625-13.7-0.0914-27.3-0.0851-41 0.0029-7.67-0.00775-15.3-0.0542-23-0.0393-6.53-0.0471-13.1-0.0147-19.6 0.0157-3.33 0.0122-6.65-0.0211-9.98-0.209-22.5-0.209-22.5 5.49-29 2.38-2.02 2.38-2.02 4.65-3.48 0.601-0.404 1.2-0.809 1.82-1.23 4.38-2.35 9.37-2.5 14.2-1.77 5.86 1.8 10.7 4.62 15 9 5.17 12.9 3.14 29.3 3.11 43-2.83e-4 2.3-1.23e-4 4.6 4.43e-4 6.89 2.85e-4 6.2-0.00557 12.4-0.0126 18.6-0.00628 6.49-0.00684 13-0.00803 19.5-0.00275 10.9-0.00898 21.8-0.0179 32.7-0.0092 11.2-0.0163 22.4-0.0205 33.6-2.63e-4 0.692-5.25e-4 1.38-7.96e-4 2.1-0.00131 3.47-0.00257 6.95-0.00381 10.4-0.0103 28.8-0.028 57.5-0.0503 86.3 0.994 5.97e-4 1.99 0.00119 3.01 0.00181 43.8 0.0266 87.6 0.0581 131 0.115 0.663 8.58e-4 1.33 0.00172 2.01 0.0026 14.4 0.0187 28.8 0.0382 43.2 0.0587 7.06 0.01 14.1 0.0199 21.2 0.0296 1.05 0.00146 1.05 0.00146 2.13 0.00294 22.8 0.0314 45.6 0.0499 68.4 0.0616 24.1 0.0125 48.2 0.0397 72.2 0.0825 14.4 0.0252 28.9 0.0385 43.3 0.0368 9.89-2.97e-5 19.8 0.0146 29.7 0.0407 5.71 0.0147 11.4 0.0228 17.1 0.0136 5.22-0.00827 10.4 0.00181 15.7 0.0265 1.89 0.0057 3.78 0.00464 5.67-0.00382 2.57-0.0105 5.14 0.00354 7.71 0.0237 0.735-0.0089 1.47-0.0178 2.23-0.027 6.44 0.0968 11.6 2.27 16.4 6.61 0.548 0.678 1.1 1.36 1.66 2.05 0.566 0.683 1.13 1.37 1.71 2.07 3.86 5.17 3.22 11.7 2.35 17.8-3.06 6.57-7.09 11-13.6 14.2-4.65 1.62-9.4 1.4-14.3 1.37-1.17 0.00873-2.33 0.0175-3.54 0.0265-3.86 0.0244-7.72 0.021-11.6 0.0177-2.72 0.0102-5.44 0.0266-8.16 0.0429-6.45 0.0354-12.9 0.0514-19.4 0.0598-7.89 0.0108-15.8 0.0416-23.7 0.075-0.698 0.00294-1.4 0.00589-2.12 0.00892-3.49 0.0148-6.99 0.03-10.5 0.0454-2.76 0.0121-5.51 0.0233-8.27 0.0338-16.8 0.0643-33.6 0.197-50.5 0.617-0.819 0.0192-1.64 0.0383-2.48 0.0581-2.23 0.0538-4.45 0.115-6.68 0.179-1.22 0.0347-2.43 0.0693-3.68 0.105-2.58-0.0967-2.58-0.0967-3.66 1.2-1.53 13-1.15 26.2-1.13 39.3 0.00543 3.6-1.31e-5 7.2-0.00635 10.8 6.6e-4 2.29 0.00194 4.58 0.00391 6.87-0.00304 1.62-0.00304 1.62-0.00613 3.26 0.00315 0.989 0.0063 1.98 0.00955 3 7.96e-4 0.871 0.00159 1.74 0.00241 2.64-0.00793 2.16-0.00793 2.16 1.13 4.11 11.3 1.91 23.4 1.15 34.8 1.15 2.07 3e-3 4.13 0.0064 6.2 0.0102 5.57 0.00877 11.1 0.0112 16.7 0.0118 3.48 7.13e-4 6.96 0.00285 10.4 0.0055 12.1 0.00922 24.3 0.0133 36.4 0.0125 11.3-6.03e-4 22.6 0.01 34 0.0257 9.73 0.0131 19.5 0.0184 29.2 0.0178 5.81-2.55e-4 11.6 0.00261 17.4 0.0132 5.45 0.00964 10.9 0.00979 16.4 0.00248 2-0.00105 4.01 0.00134 6.01 0.00736 2.73 0.00767 5.45 0.00311 8.18-0.00463 1.2 0.00772 1.2 0.00772 2.42 0.0156 3.81-0.024 5.57-0.096 8.82-2.26 0.444-1.87 0.444-1.87 0.358-4.06 0.00387-0.849 0.00773-1.7 0.0117-2.57-0.0109-0.934-0.0217-1.87-0.0329-2.83 5.54e-4 -0.982 0.00111-1.96 0.00168-2.98-2.6e-4 -2.14-0.00717-4.28-0.0198-6.42-0.0183-3.39-0.0157-6.78-0.00694-10.2 0.0219-9.64 0.0109-19.3-0.0271-28.9-0.0218-5.89-0.0145-11.8 0.0105-17.7 0.00359-2.24-0.00405-4.49-0.0233-6.73-0.0264-3.15-0.0159-6.29 0.00254-9.43-0.0169-0.922-0.0339-1.84-0.0513-2.79 0.081-5.69 1.15-9.36 4.94-13.7 8.2-7.79 17.2-7.52 27.9-7.56 1.55-0.0232 3.1-0.0486 4.65-0.0762 3.76-0.0624 7.53-0.0951 11.3-0.111 9.77e-4 -0.544 0.00195-1.09 0.00296-1.65 0.0583-32.2 0.132-64.5 0.226-96.7 0.0113-3.87 0.0224-7.74 0.0335-11.6 0.0022-0.77 0.00441-1.54 0.00668-2.33 0.0354-12.5 0.0602-25 0.0812-37.4 0.0218-12.8 0.0548-25.6 0.0984-38.4 0.0265-7.9 0.0442-15.8 0.0506-23.7 0.00587-6.05 0.0274-12.1 0.0549-18.2 0.00881-2.49 0.0125-4.97 0.0107-7.46-0.00164-3.39 0.015-6.78 0.0363-10.2-0.00727-1.48-0.00727-1.48-0.0147-3 0.0524-5.04 0.296-8.22 3.41-12.4v-2h2c0.866-0.928 0.866-0.928 1.75-1.88 3.32-3.13 6.1-4.03 10.7-4.23 7.64 0.297 14.3 2.78 20.6 7.11 2.45 3.58 2.28 7 2.32 11.2 0.01 0.722 0.0201 1.44 0.0304 2.19 0.0308 2.38 0.0479 4.76 0.0648 7.14 0.0187 1.65 0.0383 3.31 0.0587 4.96 0.0513 4.35 0.0909 8.69 0.128 13 0.04 4.44 0.0911 8.87 0.141 13.3 0.0968 8.7 0.181 17.4 0.258 26.1 3.26 0.971 6.19 1.13 9.59 1.13 1.14 0.00282 2.27 0.00564 3.45 0.00854 1.24-0.00202 2.49-0.00405 3.77-0.00613 1.31 0.00175 2.62 0.0035 3.98 0.00531 3.6 0.00456 7.19 0.00279 10.8-3.79e-4 3.76-0.00253 7.53-1.84e-4 11.3 0.00139 6.32 0.00182 12.6-5.78e-4 19-0.00534 7.31-0.00544 14.6-0.00368 21.9 0.00183 6.27 0.00454 12.5 0.00518 18.8 0.00256 3.75-0.00156 7.5-0.00176 11.2 0.00154 4.18 0.00342 8.35-0.00132 12.5-0.0069 1.25 0.00202 2.49 0.00405 3.77 0.00613 1.7-0.00423 1.7-0.00423 3.44-0.00854 0.988-3.77e-4 1.98-7.54e-4 2.99-0.00114 2.6-0.0225 2.6-0.0225 5.47-1.13v-110c-3.32-1.11-5.76-1.12-9.25-1.11-1.97 0.00227-1.97 0.00227-3.97 0.00459-1.46 0.00673-2.91 0.0135-4.37 0.0204-1.53 0.00356-3.06 0.00664-4.59 0.00929-3.3 0.00656-6.6 0.0161-9.9 0.0279-5.22 0.0183-10.4 0.0279-15.7 0.0359-14.9 0.0242-29.7 0.0599-44.6 0.105-8.2 0.0246-16.4 0.0419-24.6 0.0516-5.19 0.00652-10.4 0.022-15.6 0.0443-3.24 0.0118-6.48 0.0151-9.72 0.0161-1.49 0.00213-2.99 0.00768-4.48 0.017-22.1 0.133-22.1 0.133-28.8-6.32-2.76-3.58-4.14-7.62-5.46-11.9-0.512-1.6-0.512-1.6-1.03-3.22-0.969-3.79-1.22-6.96-1.23-10.9-0.00453-0.678-0.00906-1.36-0.0137-2.06-0.0126-2.25-0.011-4.51-0.00937-6.76-0.00599-1.62-0.0128-3.25-0.0204-4.87-0.0176-4.4-0.0224-8.79-0.0236-13.2-0.00142-2.75-0.0057-5.5-0.011-8.25-0.0185-9.6-0.0267-19.2-0.0251-28.8 0.0012-8.94-0.0199-17.9-0.0515-26.8-0.0262-7.68-0.0369-15.4-0.0356-23.1 5.09e-4 -4.58-0.00515-9.17-0.0264-13.8-0.0194-4.31-0.0195-8.62-0.00497-12.9 0.00209-1.58-0.0026-3.16-0.0147-4.74-0.0585-8.16 0.00582-14.7 4.5-21.7 0.33-0.99 0.66-1.98 1-3 9.64-2.45 19-2.54 28.1 2.07 3.74 2.79 5.72 6.51 6.89 10.9 0.452 4.7 0.438 9.39 0.432 14.1 0.00903 1.43 0.0194 2.86 0.0309 4.29 0.0275 3.87 0.0368 7.73 0.0429 11.6 0.0094 4.05 0.0356 8.09 0.06 12.1 0.0436 7.65 0.0722 15.3 0.0953 23 0.0271 8.72 0.071 17.4 0.116 26.1 0.0928 17.9 0.164 35.8 0.222 53.8 5.73 0.732 11.3 1.14 17.1 1.1 0.754-0.00146 1.51-0.00292 2.29-0.00443 1.62-0.00377 3.24-0.00986 4.86-0.0181 2.57-0.0129 5.15-0.0193 7.72-0.0241 6.39-0.0133 12.8-0.0375 19.2-0.0614 5.41-0.0198 10.8-0.0354 16.2-0.0456 2.52-0.00641 5.04-0.0189 7.56-0.0317 8.07-0.0254 16 0.108 24.1 1.09 0.33-0.66 0.66-1.32 1-2-3.49-3.59-7.04-6.92-11-10h-2c-0.268-0.593-0.536-1.19-0.812-1.8-1.2-2.22-2.44-3.65-4.19-5.45-5.6-6.26-9.7-13.6-14-20.8-0.384-0.633-0.768-1.27-1.16-1.92-8.37-13.9-16-30.4-13.8-47.1 1.5-3.56 1.5-3.56 3-6v-2h2c1.09-1.48 2.18-2.96 3.2-4.49 3.33-2.78 7.55-3.7 11.8-3.33 2.02 0.412 3.96 0.929 5.93 1.51 0.699 0.192 1.4 0.384 2.12 0.582 1.99 0.555 3.97 1.14 5.95 1.73 0.897 0.264 1.79 0.529 2.72 0.801 18.4 5.81 37.6 16.5 51.3 30.2h2c0.145-26.2-0.017-52.4-0.318-78.5-0.0388-3.39-0.073-6.79-0.103-10.2-0.0365-4.05-0.0827-8.1-0.136-12.2-0.0185-1.51-0.0337-3.03-0.0454-4.54-0.0167-2.08-0.0457-4.17-0.0778-6.25-0.02-1.77-0.02-1.77-0.0404-3.57 2.86e-4 -2.9 2.86e-4 -2.9-2.28-4.75-2.47-0.183-4.82-0.242-7.29-0.211-0.752 0.00131-1.5 0.00263-2.28 0.00398-2.5 0.00651-4.99 0.027-7.49 0.047-1.74 0.00627-3.48 0.0115-5.22 0.0158-4.6 0.0133-9.19 0.0378-13.8 0.0654-7.32 0.043-14.6 0.073-22 0.096-2.54 0.0101-5.09 0.0272-7.63 0.045-25.4 0.135-25.4 0.135-32.4-5.06-4.72-4.85-8.21-10.8-8.38-17.6 0.18-3.74 0.949-6.89 2.38-10.4 0.289-0.908 0.577-1.82 0.875-2.75 1.4-2.8 2.23-3.15 5.12-4.25 1.01-0.505 2.03-1.01 3.07-1.53 4.35-1.86 8.36-1.9 13-1.87 0.885-0.00698 1.77-0.014 2.68-0.0211 2.91-0.0199 5.81-0.0195 8.72-0.0196 2.03-0.0118 4.05-0.0251 6.08-0.04 5.32-0.0361 10.6-0.0564 16-0.0715 8.53-0.0249 17.1-0.0643 25.6-0.122 2.98-0.0164 5.96-0.0201 8.94-0.023 1.82-0.00977 3.63-0.02 5.45-0.0309 0.833 0.00255 1.67 0.00511 2.52 0.00774 4.44 0.145 4.44 0.145 7.95-2.28 0.194-3.13 0.262-6.17 0.243-9.3 0.0019-0.964 0.0038-1.93 0.00575-2.92 0.00372-3.2-0.00701-6.4-0.0182-9.6-0.00119-2.21-0.00165-4.43-0.00139-6.64-0.00157-4.64-0.00987-9.29-0.0233-13.9-0.017-5.97-0.0208-11.9-0.0201-17.9-2.71e-4 -4.57-0.00575-9.15-0.013-13.7-0.00319-2.2-0.00516-4.4-0.00589-6.6-0.00216-3.07-0.0109-6.14-0.0216-9.21 4.53e-4 -0.919 9.06e-4 -1.84 0.00137-2.78 0.384-4.01 0.384-4.01-1.15-7.38-1.53-0.0908-3.06-0.112-4.6-0.105-0.982 0.00207-1.96 0.00414-2.98 0.00628-1.08 0.00756-2.16 0.0151-3.27 0.0229-1.12 0.00415-2.24 0.0083-3.4 0.0126-3.59 0.0153-7.18 0.0385-10.8 0.0636-1.12 0.00704-2.23 0.0141-3.38 0.0213-8.07 0.0521-16.1 0.123-24.2 0.197-2.54 0.0225-5.09 0.0449-7.63 0.0673-5.93 0.0523-11.9 0.106-17.8 0.159-6.77 0.0613-13.5 0.121-20.3 0.181-13.9 0.123-27.8 0.248-41.7 0.373-1.32 5.02-1.15 10-1.16 15.2-0.00508 1.02-0.0102 2.04-0.0154 3.1-0.0107 2.22-0.0193 4.43-0.0261 6.65-0.0118 3.51-0.0313 7.02-0.0531 10.5-0.0615 9.98-0.116 20-0.149 29.9-0.021 6.11-0.0563 12.2-0.101 18.3-0.0141 2.32-0.0229 4.65-0.0261 6.97-0.00492 3.26-0.0281 6.51-0.0553 9.76 0.00301 0.955 0.00601 1.91 0.00911 2.89-0.0781 6.31-0.646 12.5-5.03 17.5-0.522 0.353-1.04 0.706-1.58 1.07-1.39 1.05-1.39 1.05-2.81 2.12v2c-7.99 1.8-15.2 3.38-23 0-1.75-1.63-1.75-1.63-3-3h-2c-0.124-0.681-0.247-1.36-0.375-2.06-0.574-2.98-0.574-2.98-1.64-5.94-1.4-4.9-1.28-9.78-1.29-14.8-0.00832-1.07-0.0166-2.14-0.0252-3.24-0.024-3.52-0.0329-7.04-0.0395-10.6-0.00897-2.46-0.0181-4.91-0.0274-7.37-0.0165-5.15-0.0242-10.3-0.0271-15.4-0.00539-6.58-0.0431-13.2-0.0887-19.7-0.0298-5.07-0.037-10.1-0.038-15.2-0.0042-2.43-0.0166-4.85-0.0375-7.28-0.027-3.4-0.0221-6.8-0.00958-10.2-0.0223-1.49-0.0223-1.49-0.045-3.01 0.0641-6.14 1.23-10.1 4.57-15.3 1.25-1.71 1.25-1.71 1.07-3.77 0.99-0.33 1.98-0.66 3-1v-2c1.14-0.0606 2.29-0.121 3.46-0.184 1.49-0.0844 2.98-0.169 4.47-0.254 0.755-0.0393 1.51-0.0786 2.29-0.119 3.69 0.116 3.69 0.116 6.78-1.44 0.16-2.37 0.277-4.75 0.375-7.12 0.531-9.18 2.68-14.1 8.61-21.2 8.91-7.52 26.4-4.85 37.3-4.84 1.48-0.00304 2.95-0.00657 4.43-0.0105 3.15-0.00781 6.3-0.013 9.45-0.0163 5-0.00599 10-0.0226 15-0.0413 1.72-0.00634 3.45-0.0127 5.17-0.019 0.862-0.00317 1.72-0.00633 2.61-0.00959 11.6-0.0418 23.2-0.075 34.9-0.0874 7.87-0.00844 15.7-0.0311 23.6-0.0694 4.15-0.0196 8.29-0.0322 12.4-0.0272 29.1 0.0288 56.2-1.94 81.1-18.6v-2l4-1v-2c0.559-0.244 1.12-0.487 1.7-0.738 9.01-4.93 19.1-15.2 22.3-25.3-0.33-0.99-0.66-1.98-1-3-12.1-1.8-24.1-2.18-36.4-2.24-0.779-0.00438-1.56-0.00876-2.36-0.0133-7.35-0.0411-14.7-0.0664-22-0.0539-4.06 0.00586-8.11-0.0124-12.2-0.0459-1.53-0.00791-3.06-0.00674-4.59 0.00402-13.3 0.0901-13.3 0.0901-17.8-3-6.73-6.7-7.79-11.8-7.87-21-0.0281-1.67-0.0568-3.34-0.0859-5.01-0.041-2.61-0.0779-5.22-0.104-7.83-0.137-18.6-0.137-18.6-8.22-35-0.44-0.59-0.88-1.18-1.33-1.79-11.3-14.8-26.4-25.9-45-29.1-8.98-0.88-17.9-1.15-26.9-1.13-1.21-0.00175-2.42-0.0035-3.66-0.00531-3.26-0.00361-6.53-0.00282-9.79 3.79e-4 -3.43 0.00256-6.86 1.77e-4 -10.3-0.00139-5.75-0.00181-11.5 5.53e-4 -17.2 0.00534-6.64 0.00547-13.3 0.00365-19.9-0.00183-5.72-0.00453-11.4-0.00518-17.2-0.00256-3.41 0.00156-6.82 0.00177-10.2-0.00154-3.79-0.00253-7.57 0.00131-11.4 0.0069-1.13-0.00202-2.26-0.00405-3.43-0.00613-1.03 0.00282-2.05 0.00564-3.11 0.00854-0.894 3.77e-4 -1.79 7.54e-4 -2.71 0.00114-2.2-0.0124-2.2-0.0124-4.14 1.13v73c5.11 1.46 8.05 2.25 13.1 2.31 1.11 0.0251 2.22 0.0503 3.36 0.0762 2.3 0.035 4.59 0.0663 6.89 0.0938 8.37 0.199 15.3 1.46 22.7 5.52 6.28 9.23 5.31 24.8 5.38 35.4 0.0137 1.18 0.0274 2.35 0.0415 3.56-0.0442 8.46-0.559 17.5-5.67 24.6-5.68 4.9-15.1 4.56-22.2 4.32-2.54-0.221-5.05-0.498-7.58-0.887-0.193-0.736-0.387-1.47-0.586-2.23-0.26-0.976-0.521-1.95-0.789-2.96-0.255-0.963-0.51-1.93-0.773-2.92-0.765-2.83-0.765-2.83-1.87-5.18-1.12-3.08-1.4-5.77-1.61-9.03-0.0748-1.07-0.15-2.14-0.227-3.24-0.049-0.808-0.098-1.62-0.148-2.45-1.02 0.00277-1.02 0.00277-2.06 0.00559-16.5 0.0442-33.1 0.0773-49.6 0.098-8 0.0103-16 0.0244-24 0.0473-6.97 0.02-13.9 0.0328-20.9 0.0373-3.69 0.0026-7.38 0.00871-11.1 0.0233-4.12 0.0162-8.24 0.0165-12.4 0.0156-1.83 0.0108-1.83 0.0108-3.69 0.0218-7.11-0.0173-14.2-0.158-20.3-4.25-0.692-1.32-1.36-2.66-2-4-0.353-0.556-0.706-1.11-1.07-1.68-3.68-6.12-4.03-12.3-2.93-19.3 2.41-6.16 5.85-11.2 12-14 7.99-1.27 16-1.19 24.1-1.26 2.54-0.0212 5.08-0.0482 7.62-0.0767 6.3-0.0694 12.6-0.129 18.9-0.189 5.34-0.0509 10.7-0.106 16-0.166 2.5-0.0265 5-0.0474 7.5-0.068 1.53-0.0166 3.06-0.0335 4.58-0.0507 0.695-0.00418 1.39-0.00837 2.11-0.0127 2.99-0.0391 5.29-0.221 8.16-1.18v-76c-40.9-0.0293-81.9-0.0507-123-0.0619-2.35-6.41e-4 -4.7-0.0013-7.05-0.00196-84.9-0.0234-170 0.0555-255 0.564zm-162-0.0273c-12.9 0.537-25.8 0.674-38.8 0.773-1.54 0.0125-1.54 0.0125-3.12 0.0252-9.67 0.0779-19.3 0.149-29 0.206-5.34 0.0319-10.7 0.0731-16 0.12-2.01 0.0159-4.03 0.0283-6.04 0.0369-2.8 0.0122-5.6 0.0364-8.41 0.0631-1.22 8.84e-4 -1.22 8.84e-4 -2.47 0.00179-7.07 0.0889-13.8 1.29-20.4 3.93-1.13 0.454-2.27 0.908-3.44 1.38v2c-0.71 0.0851-1.42 0.17-2.15 0.258-3.48 0.906-5.56 2.45-8.41 4.62-1.39 1.05-1.39 1.05-2.82 2.12-1.3 0.994-1.3 0.994-2.62 2.01-0.772 0.539-1.54 1.08-2.34 1.63l-1.66 1.37v2c-0.577 0.0206-1.16 0.0412-1.75 0.0625-3.63 1.51-4.5 4.5-6.25 7.94 3.32 0.993 6.34 1.13 9.79 1.15 1.18 0.00834 2.37 0.0167 3.58 0.0253 1.29 0.00418 2.59 0.00837 3.92 0.0127 1.38 0.00795 2.76 0.0163 4.14 0.0251 2.97 0.018 5.94 0.0331 8.91 0.0458 4.71 0.0203 9.42 0.0479 14.1 0.0767 10 0.0601 20 0.112 30 0.163 10.8 0.0552 21.6 0.112 32.3 0.178 4.67 0.0282 9.34 0.0518 14 0.0719 2.92 0.0135 5.84 0.0309 8.77 0.0493 1.98 0.0113 3.96 0.018 5.93 0.0244 7.53 0.0521 15 0.427 22.5 1.18v2c0.742 0.433 1.49 0.866 2.25 1.31 3.17 1.94 4.7 3.58 6.75 6.69 0.622 3.4 0.622 3.4 0.793 7.23 0.0545 1.02 0.0545 1.02 0.11 2.06 0.112 2.15 0.199 4.31 0.284 6.46 0.101 2.17 0.206 4.33 0.316 6.5 0.0971 1.96 0.18 3.91 0.262 5.87-0.0878 2.77-0.0878 2.77 1.23 3.88 1.67-0.0638 3.34-0.2 5-0.375 0.908-0.0902 1.82-0.18 2.75-0.273 2.21-0.12 2.21-0.12 3.25-1.35 0.0944-2.3 0.117-4.6 0.114-6.91 2.19e-4 -1.08 2.19e-4 -1.08 4.43e-4 -2.19-6.99e-4 -2.4-0.00849-4.79-0.0163-7.19-0.00186-1.66-0.00329-3.32-0.00429-4.97-0.00383-4.37-0.0137-8.74-0.0247-13.1-0.0102-4.46-0.0148-8.91-0.0198-13.4-0.0107-8.75-0.0278-17.5-0.0488-26.3-8.46-0.0528-16.9 0.0777-25.3 0.473zm-264 75.5c-0.802 22-0.802 22-1.12 43.9-0.00451 0.82-0.00902 1.64-0.0137 2.49-0.32 3.59-0.32 3.59 1.14 6.58 1.41 0.098 2.82 0.128 4.23 0.129 0.898 0.00315 1.8 0.0063 2.72 0.00955 0.976-0.00202 1.95-0.00405 2.96-0.00613 1.49 0.00144 1.49 0.00144 3.02 0.0029 2.11 6.82e-4 4.22-0.00117 6.33-0.00534 3.24-0.00535 6.48-5.54e-5 9.72 0.00635 2.04-6.61e-4 4.09-0.00194 6.13-0.00391 1.46 0.00304 1.46 0.00304 2.96 0.00613 1.35-0.00473 1.35-0.00473 2.72-0.00955 0.794-7.96e-4 1.59-0.00159 2.41-0.00241 1.84 0.0719 1.84 0.0719 2.82-1.13 0.0985-1.59 0.128-3.19 0.129-4.78 0.00473-1.53 0.00473-1.53 0.00955-3.08-0.00202-1.11-0.00405-2.21-0.00613-3.36 9.57e-4 -1.13 0.00191-2.26 0.0029-3.42 6.82e-4 -2.39-0.00117-4.78-0.00534-7.17-0.00535-3.67-5.57e-5 -7.35 0.00635-11-6.61e-4 -2.32-0.00194-4.63-0.00391-6.95 0.00202-1.11 0.00405-2.21 0.00613-3.36-0.00315-1.02-0.0063-2.04-0.00955-3.08-7.96e-4 -0.901-0.00159-1.8-0.00241-2.73 0.1-2.04 0.1-2.04-1.13-3.05-1.41-0.0929-2.83-0.117-4.24-0.114-1.35 1.13e-4 -1.35 1.13e-4 -2.73 2.29e-4 -1.47 0.00774-1.47 0.00774-2.97 0.0156-0.997 0.00141-1.99 0.00283-3.02 0.00429-3.2 0.00562-6.4 0.0182-9.6 0.0309-2.16 0.00501-4.33 0.00958-6.49 0.0137-5.32 0.0111-10.6 0.0278-15.9 0.0488zm132-1.02c-1.37 0.0306-1.37 0.0306-2.77 0.0619-1.43 0.0401-1.43 0.0401-2.9 0.0809-0.882 0.0207-1.76 0.0413-2.67 0.0626-3.29 0.0788-6.59 0.167-9.88 0.254-7.36 0.186-14.7 0.371-22.3 0.562v53c5.26 0.877 5.26 0.877 10.4 1.13 1.23 0.00473 1.23 0.00473 2.48 0.00955 1.29-0.00304 1.29-0.00304 2.61-0.00613 0.899 9.57e-4 1.8 0.00191 2.72 0.0029 1.89 6.78e-4 3.78-0.00115 5.67-0.00534 2.91-0.00539 5.81-2.55e-5 8.72 0.00635 1.84-6.6e-4 3.68-0.00194 5.51-0.00391 0.873 0.00202 1.75 0.00405 2.64 0.00613 3.92 0.376 3.92 0.376 7.21-1.14 0.0935-1.66 0.117-3.32 0.114-4.98-7.55e-5 -1.06-1.51e-4 -2.12-2.29e-4 -3.22-0.00516-1.15-0.0103-2.31-0.0156-3.5-0.00141-1.17-0.00283-2.35-0.00429-3.56-0.00562-3.77-0.0182-7.54-0.0309-11.3-0.00501-2.55-0.00958-5.1-0.0137-7.65-0.0111-6.26-0.0278-12.5-0.0488-18.8-2.87-0.958-4.5-1.1-7.47-1.02zm51.5 1.02v53h49c1.22-2.45 1.09-3.96 1.04-6.69-0.0169-0.974-0.0337-1.95-0.0511-2.95-0.0239-1.06-0.0478-2.11-0.0724-3.2-0.0319-1.62-0.0319-1.62-0.0644-3.27-0.0463-2.29-0.0952-4.57-0.147-6.86-0.0778-3.51-0.145-7.02-0.211-10.5-0.0462-2.22-0.0931-4.43-0.141-6.65-0.0198-1.06-0.0397-2.11-0.0602-3.2-0.0232-0.974-0.0463-1.95-0.0702-2.95-0.0278-1.29-0.0278-1.29-0.0562-2.61-0.0382-2.15-0.0382-2.15-1.16-4.09h-48zm-182 95c-2.24 3.36-2.25 4.45-2.24 8.37-0.00308 1.1-0.00615 2.2-0.00932 3.33 0.00719 1.18 0.0144 2.37 0.0218 3.59 4.58e-4 1.21 9.16e-4 2.43 0.00139 3.68 0.00302 2.57 0.0109 5.13 0.0233 7.7 0.0183 3.95 0.0205 7.89 0.0203 11.8 0.00491 2.49 0.0107 4.98 0.0176 7.47 0.00111 1.19 0.00223 2.38 0.00337 3.6 0.00638 1.09 0.0128 2.18 0.0193 3.31 0.00381 0.966 0.00762 1.93 0.0116 2.93-0.11 2.16-0.11 2.16 1.13 3.19 1.44 0.093 2.89 0.117 4.34 0.114 0.921-7.55e-5 1.84-1.51e-4 2.79-2.29e-4 1.5-0.00774 1.5-0.00774 3.03-0.0156 1.02-0.00141 2.04-0.00283 3.09-0.00429 3.27-0.00562 6.54-0.0182 9.81-0.0309 2.21-0.00501 4.42-0.00958 6.63-0.0137 5.43-0.0111 10.9-0.0278 16.3-0.0488 0.146-5.22 0.288-10.4 0.427-15.7 0.0476-1.77 0.0961-3.54 0.146-5.31 0.167-6.01 0.311-12 0.427-18 0.0266-1.3 0.0266-1.3 0.0537-2.63 0.0461-2.51 0.077-5.02 0.103-7.53 0.0149-0.762 0.0297-1.52 0.045-2.31 0.0101-1.84-0.0864-3.69-0.201-5.53-2.4-2.4-2.95-2.26-6.23-2.27-0.874-0.00953-1.75-0.0191-2.65-0.0289-0.946 9.11e-4 -1.89 0.00182-2.87 0.00276-0.969-0.00429-1.94-0.00857-2.94-0.013-2.05-0.00575-4.1-0.00624-6.15-0.00191-3.15 0.00316-6.29-0.0203-9.44-0.0457-1.99-0.00227-3.98-0.00298-5.97-0.00195-1.42-0.0138-1.42-0.0138-2.87-0.0279-0.874 0.00623-1.75 0.0125-2.65 0.0189-0.771-6.29e-4 -1.54-0.00126-2.34-0.00191-0.626 0.123-1.25 0.247-1.9 0.374zm90 1c-0.0938 1.81-0.117 3.62-0.114 5.44 7.55e-5 1.16 1.51e-4 2.32 2.29e-4 3.52 0.00516 1.26 0.0103 2.53 0.0156 3.83 0.00141 1.29 0.00283 2.57 0.00429 3.9 0.00382 3.42 0.0137 6.85 0.0247 10.3 0.0102 3.49 0.0148 6.98 0.0198 10.5 0.0102 6.86 0.0298 13.7 0.0488 20.6h48v-59c-7.73-0.0206-15.5-0.0412-23.4-0.0625-2.44-0.0091-4.89-0.0182-7.41-0.0276-1.93-0.00292-3.85-0.00547-5.78-0.00757-1.51-0.00767-1.51-0.00767-3.06-0.0155-0.954-1.21e-4 -1.91-2.42e-4 -2.89-3.66e-4 -0.833-0.00222-1.67-0.00444-2.52-0.00673-1.91-0.0898-1.91-0.0898-2.9 1.12zm92 0c-0.0231 7.41-0.0409 14.8-0.0518 22.2-0.00523 3.44-0.0123 6.89-0.0236 10.3-0.0129 3.95-0.0178 7.91-0.0222 11.9-0.00516 1.24-0.0103 2.48-0.0156 3.76-7.55e-5 1.14-1.51e-4 2.28-2.29e-4 3.46-0.00222 1.01-0.00444 2.02-0.00673 3.06-0.137 2.25-0.137 2.25 1.12 3.28 1.5 0.0931 3.01 0.117 4.52 0.114 0.961-7.55e-5 1.92-1.51e-4 2.91-2.29e-4 1.04-0.00516 2.09-0.0103 3.17-0.0156 1.6-0.00212 1.6-0.00212 3.22-0.00429 3.41-0.00562 6.83-0.0182 10.2-0.0309 2.31-0.00501 4.62-0.00958 6.92-0.0137 5.67-0.0111 11.3-0.0278 17-0.0488 0.0231-7.54 0.0409-15.1 0.0518-22.6 0.00523-3.5 0.0123-7.01 0.0236-10.5 0.0129-4.02 0.0178-8.05 0.0222-12.1 0.00516-1.26 0.0103-2.53 0.0156-3.83 7.55e-5 -1.16 1.51e-4 -2.32 2.29e-4 -3.52 0.00222-1.03 0.00444-2.06 0.00673-3.12 0.142-2.28 0.142-2.28-1.12-3.32-1.43-0.0981-2.87-0.128-4.3-0.129-0.914-0.00315-1.83-0.0063-2.77-0.00955-0.995 0.00202-1.99 0.00405-3.01 0.00613-1.52-0.00144-1.52-0.00144-3.08-0.0029-2.15-6.82e-4 -4.3 0.00117-6.45 0.00534-3.3 0.00534-6.6 5.85e-5 -9.9-0.00635-2.09 6.61e-4 -4.17 0.00194-6.26 0.00391-0.993-0.00202-1.99-0.00405-3.01-0.00613-0.918 0.00315-1.84 0.0063-2.78 0.00955-0.81 7.96e-4 -1.62 0.00159-2.45 0.00241-2.06 0.00294-2.06 0.00294-3.98 1.13zm-183 100c-2.31 16.9-2.31 16.9 0 35h45v-35h-45zm91 0v35h48v-35h-48zm-91 159c0.115 1.58 0.242 3.17 0.375 4.75 0.0696 0.882 0.139 1.76 0.211 2.67 0.423 2.63 1.22 4.21 2.41 6.58 0.671 2.48 1.29 4.94 1.88 7.44 4.55 18.7 10.6 36.4 24.1 50.6h2c0.373 0.864 0.373 0.864 0.753 1.74 1.43 2.59 3.08 4.28 5.2 6.34 0.783 0.768 1.57 1.54 2.37 2.33 1.64 1.59 3.29 3.18 4.93 4.77 3.52 3.45 6.83 6.72 9.56 10.8 2.29 3.14 2.62 3.39 6.18 3.99 1.73-5.42 0.951-11.2 0.758-16.8-0.0693-2.07-0.124-4.13-0.178-6.2-0.49-16.4-2.53-31.5-12.6-45h-2c-0.242-0.565-0.485-1.13-0.734-1.71-5.35-9.68-16.3-16.2-25.3-22.3-1.05-0.712-2.09-1.42-3.17-2.16-5.31-3.46-10.8-6.02-16.8-7.84zm1123 11c-0.945 0.525-1.89 1.05-2.86 1.59-1.06 0.698-1.06 0.698-2.14 1.41v2c-0.674 0.2-1.35 0.4-2.04 0.605-11.5 5.41-22.4 18.5-26.6 30.3-1.48 4.64-2.47 9.34-3.33 14.1-0.224 1.22-0.449 2.44-0.68 3.7-1.88 12.4-1.51 24.8-1.32 37.3 3.93-1.46 6.09-2.77 8.81-6 0.605-0.701 1.21-1.4 1.83-2.12 1.55-1.76 1.55-1.76 1.36-3.88 1.48-0.495 1.48-0.495 3-1 1.25-1.47 2.49-2.95 3.69-4.46 1.31-1.54 1.31-1.54 3.69-3.41 2.95-2.39 5.27-5.02 7.73-7.91 1.99-2.32 4.03-4.58 6.09-6.84 2.94-3.31 5.53-6.57 7.81-10.4 0.46-0.766 0.92-1.53 1.39-2.32 6.01-10.4 9.42-21.7 12.8-33.2 0.797-2.45 0.797-2.45 1.8-3.45 0.4-2.86 0.752-5.7 1.06-8.56 0.0909-0.806 0.182-1.61 0.275-2.44 0.225-2 0.444-4 0.662-5.99-7.85 0-16.4 7.09-23 11zm-1033 295c-1.37 1.14-1.37 1.14-1.08 4.2 0.015 1.45 0.0356 2.9 0.0606 4.35 0.00961 0.79 0.0192 1.58 0.0291 2.39 0.0331 2.62 0.0734 5.25 0.114 7.87 0.0243 1.81 0.0481 3.63 0.0715 5.44 0.063 4.79 0.132 9.57 0.202 14.4 0.0706 4.88 0.135 9.76 0.201 14.6 0.129 9.58 0.265 19.2 0.404 28.7 5.42 0.145 10.8 0.287 16.3 0.427 1.84 0.0478 3.68 0.0963 5.51 0.146 15.1 0.403 30.1 0.705 45.2-0.0728 1.47-0.0715 1.47-0.0715 2.97-0.145 2.36-0.115 4.73-0.234 7.09-0.355-0.381-6.1-1.44-11-4.19-16.4-0.315-0.646-0.629-1.29-0.953-1.96-4.64-9.4-10.1-18.6-16.9-26.6h-2c-0.258-0.583-0.516-1.17-0.781-1.77-1.32-2.41-2.77-4.05-4.72-5.98-0.608-0.614-1.22-1.23-1.84-1.86-1.55-1.6-1.55-1.6-3.66-1.39v-2c-1.32-0.33-2.64-0.66-4-1v-2c-2.24-1.64-4.47-3.15-6.81-4.62-0.643-0.42-1.29-0.84-1.95-1.27-3.81-2.49-3.81-2.49-8.24-3.1v-2c-0.565-0.267-1.13-0.535-1.71-0.81-2.55-1.21-5.11-2.42-7.66-3.63-0.889-0.421-1.78-0.842-2.7-1.28-0.851-0.403-1.7-0.806-2.58-1.22-0.786-0.372-1.57-0.744-2.38-1.13-1.33-0.634-2.65-1.28-3.97-1.94zm-56.2 5.62c-1.13 0.552-2.26 1.1-3.43 1.67l-3.38 1.7c-1.01 0.5-2.03 1-3.07 1.52-2.32 1.15-4.63 2.31-6.93 3.48v2c-0.736 0.254-1.47 0.508-2.23 0.77-2.94 1.3-4.74 2.74-7.08 4.92-3.61 3.33-7.29 6.53-11.1 9.67-1.74 1.57-1.74 1.57-2.66 3.78-0.965 1.86-0.965 1.86-3.96 2.86-7.58 8.91-12.6 19.8-17.4 30.4-0.537 1.16-0.537 1.16-1.09 2.34-2.43 5.41-2.43 5.41-2.54 11.3 1.11 1.33 1.11 1.33 3.89 1.12 1.94-0.00333 1.94-0.00333 3.92-0.00673 0.712 1.46e-4 1.42 2.92e-4 2.16 4.43e-4 2.36-6.99e-4 4.73-0.00849 7.09-0.0163 1.64-0.00186 3.27-0.00329 4.91-0.00429 4.31-0.00383 8.62-0.0137 12.9-0.0247 4.4-0.0102 8.79-0.0148 13.2-0.0198 8.63-0.0107 17.3-0.0278 25.9-0.0488 2.34-3.66 2.27-7.14 2.23-11.3 2.92e-4 -0.732 5.84e-4 -1.46 8.85e-4 -2.22-0.00139-2.41-0.0169-4.83-0.0326-7.24-0.00373-1.68-0.00658-3.35-0.00858-5.03-0.00763-4.41-0.0273-8.81-0.0494-13.2-0.0205-4.5-0.0296-9-0.0397-13.5-0.0214-8.82-0.0556-17.6-0.0977-26.5-4.73-1.15-6.79-0.55-11.2 1.62zm868-0.625c-0.094 1.93-0.117 3.87-0.114 5.8 7.55e-5 1.24 1.51e-4 2.48 2.29e-4 3.76 0.00511 1.36 0.0103 2.73 0.0156 4.09 0.00186 1.39 0.00329 2.78 0.00429 4.17 0.00382 3.66 0.0137 7.32 0.0247 11 0.0102 3.73 0.0148 7.47 0.0198 11.2 0.0107 7.33 0.0278 14.7 0.0488 22 6.68 0.0253 13.4 0.0428 20 0.0549 2.27 0.00504 4.55 0.0119 6.82 0.0205 3.26 0.0121 6.52 0.0178 9.78 0.0222 1.02 0.00516 2.05 0.0103 3.1 0.0156 0.941 7.55e-5 1.88 1.51e-4 2.85 2.29e-4 0.833 0.00222 1.67 0.00444 2.52 0.00673 1.91 0.0898 1.91 0.0898 2.9-1.12 0.0992-1.9 0.128-3.8 0.129-5.7 0.00473-1.83 0.00473-1.83 0.00955-3.69-0.00179-1.34-0.00384-2.68-0.00613-4.02 6.73e-4 -1.36 0.00164-2.73 0.0029-4.09 0.00148-2.86-6.77e-4 -5.72-0.00534-8.58-0.0057-3.68-0.00242-7.35 0.00357-11 0.00361-2.82 0.00247-5.63-1.28e-4 -8.45-6.69e-4 -1.36 1.58e-4 -2.71 0.00248-4.07 0.00253-1.89-0.00201-3.78-0.0069-5.67-7.96e-4 -1.08-0.00159-2.16-0.00241-3.27 0.147-2.38 0.147-2.38-1.13-3.43-1.44-0.0981-2.88-0.128-4.32-0.129-0.918-0.00315-1.84-0.0063-2.78-0.00955-1.5 0.00304-1.5 0.00304-3.02 0.00613-1.53-0.00144-1.53-0.00144-3.08-0.0029-2.16-6.82e-4 -4.31 0.00117-6.47 0.00534-3.31 0.00535-6.62 5.55e-5 -9.94-0.00635-2.09 6.61e-4 -4.18 0.00194-6.27 0.00391-0.998-0.00202-2-0.00405-3.02-0.00613-0.918 0.00315-1.84 0.0063-2.78 0.00955-0.812 7.96e-4 -1.62 0.00159-2.46 0.00241-1.88-0.0767-1.88-0.0767-2.86 1.13zm127-1.96c-5 0.0888-10 0.215-15 0.336-1.83 0.0438-3.66 0.0854-5.49 0.125-2.65 0.0574-5.3 0.121-7.95 0.186-1.23 0.0251-1.23 0.0251-2.49 0.0506-3.73-0.251-3.73-0.251-6.85 1.27-0.0991 1.86-0.128 3.73-0.129 5.59-0.00315 1.19-0.0063 2.39-0.00955 3.62 0.00202 1.3 0.00405 2.6 0.00613 3.94-6.73e-4 1.34-0.00164 2.68-0.0029 4.02-0.00148 2.81 6.77e-4 5.62 0.00534 8.43 0.00569 3.61 0.00242 7.21-0.00357 10.8-0.00361 2.77-0.00246 5.53 1.28e-4 8.3 9.94e-4 1.98-0.00205 3.96-0.00513 5.93 0.00315 1.2 0.0063 2.4 0.00955 3.63 7.96e-4 1.06 0.00159 2.12 0.00241 3.21-0.0416 2.51-0.0416 2.51 1.13 4.51 6.51 0.0253 13 0.0428 19.5 0.0549 2.22 0.00504 4.43 0.0119 6.65 0.0205 3.18 0.0121 6.36 0.0178 9.55 0.0222 1.49 0.00774 1.49 0.00774 3.02 0.0156 1.38 1.13e-4 1.38 1.13e-4 2.79 2.29e-4 1.22 0.00333 1.22 0.00333 2.46 0.00673 2.06 0.00559 2.06 0.00559 3.99-1.12 0.0231-8.07 0.0409-16.1 0.0518-24.2 0.00523-3.75 0.0123-7.49 0.0236-11.2 0.0108-3.61 0.0168-7.22 0.0194-10.8 0.00185-1.38 0.00547-2.76 0.0109-4.14 0.00721-1.93 0.00768-3.86 0.0078-5.78 0.00222-1.1 0.00444-2.2 0.00673-3.33 0.16-2.42 0.16-2.42-1.12-3.47-3.41-0.0725-6.81-0.0193-10.2 0.0359zm94.1-0.0793c-0.821 0.0402-1.64 0.0804-2.49 0.122-0.881 0.0541-1.76 0.108-2.67 0.164-0.906 0.0472-1.81 0.0944-2.74 0.143-2.89 0.153-5.79 0.321-8.68 0.49-1.96 0.106-3.92 0.212-5.88 0.316-4.81 0.258-9.62 0.53-14.4 0.809-0.0231 7.94-0.0409 15.9-0.0518 23.8-0.00523 3.68-0.0123 7.37-0.0236 11.1-0.0108 3.55-0.0168 7.11-0.0194 10.7-0.00185 1.36-0.00547 2.72-0.0109 4.08-0.00721 1.9-0.00768 3.79-0.0078 5.69-0.00222 1.08-0.00444 2.16-0.00673 3.28-0.156 2.38-0.156 2.38 1.12 3.44 3.09 0.101 6.16 0.14 9.25 0.133 0.928 9.57e-4 1.86 0.00191 2.81 0.0029 1.97 6.82e-4 3.93-0.00117 5.9-0.00534 3.02-0.00535 6.04-5.53e-5 9.07 0.00635 1.91-6.61e-4 3.81-0.00194 5.72-0.00391 1.37 0.00304 1.37 0.00304 2.76 0.00613 4.07 0.4 4.07 0.4 7.49-1.14 0.11-1.89 0.149-3.79 0.161-5.68 0.00961-1.21 0.0192-2.43 0.0291-3.68 0.00485-1.34 0.00913-2.67 0.0129-4.01 0.00575-1.36 0.0115-2.72 0.0173-4.08 0.0105-2.86 0.0164-5.71 0.0198-8.57 0.00549-3.67 0.0295-7.33 0.058-11 0.0186-2.81 0.0238-5.63 0.0254-8.44 0.00303-1.35 0.0111-2.7 0.0242-4.06 0.017-1.89 0.0133-3.78 0.00869-5.67 0.00365-1.08 0.00729-2.15 0.011-3.26-0.121-0.841-0.243-1.68-0.367-2.55-3.13-2.09-3.6-2.24-7.1-2.04zm-132 108c-0.0988 1.71-0.128 3.43-0.129 5.15-0.00315 1.1-0.0063 2.2-0.00955 3.33 0.00202 1.19 0.00405 2.39 0.00613 3.62-9.57e-4 1.22-0.00191 2.43-0.0029 3.69-6.82e-4 2.58 0.00117 5.16 0.00534 7.74 0.00535 3.96 5.58e-5 7.93-0.00635 11.9 6.61e-4 2.5 0.00194 5 0.00391 7.5-0.00202 1.19-0.00405 2.39-0.00613 3.62 0.00315 1.1 0.0063 2.2 0.00955 3.33 7.96e-4 0.972 0.00159 1.94 0.00241 2.94-0.119 2.18-0.119 2.18 1.13 3.2 1.5 0.0931 3.01 0.117 4.52 0.114 0.961-7.55e-5 1.92-1.51e-4 2.91-2.29e-4 1.04-0.00516 2.09-0.0103 3.17-0.0156 1.6-0.00212 1.6-0.00212 3.22-0.00429 3.41-0.00562 6.83-0.0182 10.2-0.0309 2.31-0.00501 4.62-0.00958 6.92-0.0137 5.67-0.0111 11.3-0.0278 17-0.0488 0.146-5.08 0.288-10.2 0.427-15.2 0.0476-1.72 0.0961-3.44 0.146-5.16 0.266-9.26 0.48-18.5 0.521-27.8 0.00973-1.16 0.00973-1.16 0.0197-2.34 0.00156-1.82-0.0504-3.64-0.113-5.46-1.6-1.6-3.29-1.13-5.5-1.13-0.958-0.00315-1.92-0.0063-2.9-0.00955-1.04 0.00202-2.08 0.00405-3.16 0.00613-1.06-9.57e-4 -2.12-0.00191-3.22-0.0029-2.25-6.82e-4 -4.5 0.00117-6.75 0.00534-3.46 0.00535-6.91 5.56e-5 -10.4-0.00635-2.18 6.61e-4 -4.36 0.00194-6.54 0.00391-1.04-0.00202-2.08-0.00405-3.16-0.00613-1.44 0.00473-1.44 0.00473-2.9 0.00955-0.847 7.96e-4 -1.69 0.00159-2.57 0.00241-1.94-0.0862-1.94-0.0862-2.94 1.13zm-89 0c-0.0229 7.81-0.0428 15.6-0.0549 23.4-0.00504 2.66-0.0119 5.32-0.0205 7.98-0.0121 3.82-0.0178 7.63-0.0222 11.4-0.00516 1.2-0.0103 2.4-0.0156 3.63-7.55e-5 1.1-1.51e-4 2.2-2.29e-4 3.34-0.00222 0.975-0.00444 1.95-0.00673 2.95-0.128 2.18-0.128 2.18 1.12 3.21 1.44 0.0981 2.88 0.128 4.32 0.129 0.918 0.00315 1.84 0.0063 2.78 0.00955 0.998-0.00202 2-0.00405 3.02-0.00613 1.53 0.00144 1.53 0.00144 3.08 0.0029 2.16 6.82e-4 4.31-0.00117 6.47-0.00534 3.31-0.00535 6.62-5.55e-5 9.94 0.00635 2.09-6.61e-4 4.18-0.00194 6.27-0.00391 1.5 0.00304 1.5 0.00304 3.02 0.00613 0.918-0.00315 1.84-0.0063 2.78-0.00955 0.812-7.96e-4 1.62-0.00159 2.46-0.00241 1.88 0.0767 1.88 0.0767 2.86-1.13 0.0641-1.72 0.057-3.44 0.0217-5.16-0.0201-1.1-0.0402-2.2-0.0609-3.34-0.027-1.2-0.0541-2.4-0.0819-3.63-0.0236-1.22-0.0472-2.44-0.0715-3.7-0.0769-3.91-0.161-7.83-0.245-11.7-0.0532-2.65-0.106-5.29-0.158-7.94-0.129-6.5-0.267-13-0.404-19.5h-47zm217-0.957c-2.06 0.0507-4.13 0.112-6.19 0.176-0.743 0.0222-1.49 0.0444-2.25 0.0673-2.34 0.0702-4.69 0.142-7.03 0.214-1.6 0.0483-3.2 0.0965-4.8 0.145-3.9 0.117-7.8 0.236-11.7 0.355-0.168 7.33-0.328 14.7-0.482 22-0.0534 2.49-0.109 4.99-0.166 7.48-0.082 3.58-0.157 7.17-0.231 10.8-0.027 1.12-0.0541 2.23-0.0819 3.38-0.0201 1.04-0.0402 2.08-0.0609 3.15-0.02 0.915-0.04 1.83-0.0606 2.77 0.0775 2.31 0.424 4.24 1.08 6.46 5.28 0.738 10.4 1.13 15.7 1.13 1.04 0.00144 1.04 0.00144 2.1 0.0029 1.45 6.74e-4 2.9-0.00113 4.35-0.00534 2.22-0.00541 4.45-4.82e-6 6.67 0.00635 1.42-6.6e-4 2.83-0.00194 4.25-0.00391 1.92-0.00169 1.92-0.00169 3.88-0.00342 2.96 0.0814 2.96 0.0814 5.04-1.13 1.98-10.4 1.15-21.7 1.13-32.3-0.00544-2.99 1.37e-5 -5.98 0.00635-8.96-6.6e-4 -1.9-0.00194-3.79-0.00391-5.69 0.00202-0.895 0.00405-1.79 0.00613-2.71 0.386-3.99 0.386-3.99-1.14-7.34-3.35-0.0719-6.68-0.0278-10 0.0427zm-1150 15c0.147 1.61 0.298 3.22 0.45 4.82 0.0836 0.895 0.167 1.79 0.253 2.71 0.547 4.54 2.4 8.35 4.3 12.5 0.315 0.755 0.629 1.51 0.953 2.29 6.45 14.4 18.5 29.5 32 37.7l3 3h2v2c15.6 9.12 15.6 9.12 33 12 0.0231-9.89 0.0409-19.8 0.0518-29.7 0.00523-4.59 0.0123-9.19 0.0236-13.8 0.0108-4.43 0.0168-8.86 0.0194-13.3 0.00185-1.69 0.00547-3.39 0.0109-5.08 0.00721-2.36 0.00826-4.73 0.0078-7.09 0.00539-1.06 0.00539-1.06 0.0109-2.14 0.272-3.25 0.272-3.25-1.12-5.95-2.34-0.0949-4.66-0.126-7-0.114-0.732-1.46e-4 -1.46-2.92e-4 -2.22-4.43e-4 -2.43 6.99e-4 -4.86 0.00849-7.29 0.0163-1.68 0.00186-3.36 0.00329-5.04 0.00429-4.43 0.00383-8.86 0.0137-13.3 0.0247-4.52 0.0102-9.04 0.0148-13.6 0.0198-8.87 0.0107-17.7 0.0278-26.6 0.0488zm121 2c-0.0949 2.37-0.126 4.72-0.114 7.09-1.46e-4 0.741-2.92e-4 1.48-4.43e-4 2.25 6.99e-4 2.46 0.00849 4.92 0.0163 7.39 0.00186 1.7 0.00329 3.41 0.00429 5.11 0.00383 4.49 0.0137 8.98 0.0247 13.5 0.0102 4.58 0.0148 9.16 0.0198 13.7 0.0107 8.99 0.0278 18 0.0488 27 2.23 1.4 2.23 1.4 5.71-0.188 1.56-0.593 3.11-1.2 4.66-1.81 0.813-0.32 1.63-0.641 2.46-0.971 6.79-2.75 13-6.02 19.2-10 0.975-0.636 1.95-1.27 2.95-1.93 3.61-2.42 3.61-2.42 7.05-5.07v-2c0.557-0.227 1.11-0.454 1.69-0.688 2.97-1.69 4.96-3.84 7.31-6.31 0.928-0.887 1.86-1.77 2.81-2.69 2.42-2.02 2.42-2.02 2.19-4.31 0.99-0.33 1.98-0.66 3-1 7.88-8.44 16.4-25.1 17.2-36.8 0.0511-2.16 0.0511-2.16-1.19-3.19-2.3-0.0997-4.59-0.128-6.89-0.129-0.72-0.00175-1.44-0.0035-2.18-0.00531-2.39-0.00442-4.78-0.00148-7.18 0.00189-1.66-6.73e-4 -3.31-0.00164-4.97-0.0029-3.47-0.00148-6.95 6.77e-4 -10.4 0.00534-4.46 0.0057-8.93 0.00242-13.4-0.00357-3.42-0.00361-6.84-0.00247-10.3 1.28e-4 -1.65 6.69e-4 -3.29-1.59e-4 -4.94-0.00248-2.3-0.00253-4.59 0.00131-6.89 0.0069-1.31 7.96e-4 -2.62 0.00159-3.97 0.00241-2.81-0.208-2.81-0.208-3.92 1.13zm762 62c-2.11 24.3-2.15 48.6-2 73 2.4 1.2 3.89 1.13 6.57 1.13 0.963 0.00282 1.93 0.00564 2.92 0.00854 1.06-0.00202 2.12-0.00405 3.21-0.00613 1.11 0.00175 2.23 0.0035 3.38 0.00531 3.71 0.00442 7.41 0.00148 11.1-0.00189 2.58 6.74e-4 5.16 0.00164 7.74 0.0029 5.42 0.00148 10.8-5.83e-4 16.3-0.00534 6.23-0.0054 12.5-0.00371 18.7 0.00183 6.02 0.00513 12 0.00453 18.1 0.00162 2.55-6.62e-4 5.09 1.34e-4 7.64 0.00248 31.6 1.15 31.6 1.15 61.4-7.14 1.18-0.578 2.35-1.16 3.56-1.75 0.804-0.412 1.61-0.825 2.44-1.25v-2c0.572-0.104 1.14-0.209 1.73-0.316 10.8-3.27 18.8-16 24.1-25.2 1.77-3.89 2.06-7.21 2.12-11.5-1.08-1.3-1.08-1.3-3.65-1.12-1.79 0.00333-1.79 0.00333-3.61 0.00673-0.661-1.49e-4 -1.32-2.98e-4 -2-4.51e-4 -2.23 6.99e-4 -4.46 0.00856-6.69 0.0163-1.59 0.00192-3.19 0.00338-4.78 0.00443-3.44 0.00317-6.88 0.00945-10.3 0.0181-5.44 0.0135-10.9 0.0194-16.3 0.0241-12.5 0.0121-25.1 0.0341-37.6 0.0562-11.5 0.0202-23 0.0383-34.4 0.0482-5.41 0.00498-10.8 0.0148-16.2 0.0284-3.37 0.00748-6.74 0.0108-10.1 0.013-1.56 0.00187-3.12 0.00545-4.68 0.0109-15.6 0.0532-15.6 0.0532-21.6-1.11-1.38-1.82-1.38-1.82-2-4-0.33-0.637-0.66-1.27-1-1.93-2.04-3.96-3.59-7.84-5-12.1-1.1-2.89-1.1-2.89-3-5-3.07-0.177-3.07-0.177-6 0zm-521 3c-1.01 13.6-1.15 27.2-1.13 40.9 0.00544 3.68-1.9e-5 7.35-0.00635 11 6.59e-4 2.33 0.00194 4.67 0.00391 7-0.00202 1.1-0.00405 2.2-0.00613 3.34 0.00315 1.01 0.0063 2.01 0.00955 3.05 7.96e-4 0.888 0.00159 1.78 0.00241 2.69-0.0965 2.01-0.0965 2.01 1.13 3.02 1.72 0.124 3.45 0.178 5.18 0.205 1.14 0.0199 2.28 0.0399 3.45 0.0604 1.28 0.0167 2.56 0.0335 3.88 0.0507 1.38 0.0209 2.76 0.042 4.14 0.0634 3.86 0.0574 7.72 0.107 11.6 0.153 2.45 0.0296 4.91 0.0607 7.36 0.0918 34.2 0.425 68.3 0.516 102 0.554 5.05 0.00601 10.1 0.0169 15.1 0.0296 6.88 0.0171 13.8 0.0228 20.6 0.021 2.57 8.01e-4 5.14 0.00496 7.71 0.0126 3.54 0.00974 7.08 0.00703 10.6 0.00105 1.04 0.00562 2.09 0.0112 3.16 0.017 0.954-0.0042 1.91-0.00839 2.89-0.0127 1.24 8.17e-4 1.24 8.17e-4 2.5 0.00165 2.47-0.274 4.11-1.01 6.24-2.25 0.0231-9.11 0.0409-18.2 0.0518-27.3 0.00523-4.23 0.0123-8.46 0.0236-12.7 0.0108-4.08 0.0168-8.16 0.0194-12.2 0.00185-1.56 0.00547-3.12 0.0109-4.68 0.00721-2.18 0.00826-4.35 0.0078-6.53 0.00222-1.24 0.00444-2.48 0.00673-3.76 0.197-2.69 0.197-2.69-1.12-3.78-2.21-0.0992-4.43-0.126-6.64-0.127-0.703-0.00156-1.41-0.00312-2.13-0.00473-2.38-0.00401-4.75-8.19e-4 -7.13 0.00232-1.7-0.00135-3.39-0.00313-5.09-0.00531-4.63-0.00458-9.26-0.00278-13.9 3.79e-4 -4.87 0.00253-9.73 1.83e-4 -14.6-0.00139-8.21-0.00182-16.4 5.86e-4 -24.6 0.00534-9.41 0.00539-18.8 0.00372-28.2-0.00183-8.12-0.00459-16.2-0.00515-24.3-0.00256-4.83 0.00154-9.66 0.00182-14.5-0.00154-21.6-0.013-43.2 0.169-64.8 1.14z" fill="#000100"/>
<path transform="translate(689,423)" d="m0 0c4.33 3.53 7.53 7.58 9 13 0.344 8.44-0.708 15.8-5.94 22.5-11.6 9.5-11.6 9.5-17.1 9.5v2c-1.65 1.03-3.32 2.02-5 3-14.7 11.4-19.6 26.9-22 45-0.541 5.66-0.799 11.3-1 17 2.93 0.977 4.79 1.12 7.84 1.12 0.997 0.00137 1.99 0.00275 3.02 0.00417 1.09-0.0036 2.19-0.00719 3.31-0.0109 1.15 1.46e-4 2.3 2.92e-4 3.49 4.43e-4 3.81-6.98e-4 7.63-0.00849 11.4-0.0163 2.64-0.00186 5.28-0.00329 7.92-0.00429 6.25-0.00311 12.5-0.0113 18.7-0.0213 7.11-0.0112 14.2-0.0167 21.3-0.0217 14.6-0.0105 29.3-0.028 43.9-0.0503-0.115-3.34-0.247-6.68-0.383-10-0.032-0.937-0.064-1.87-0.0969-2.84-0.335-7.91-1.87-14.7-4.52-22.1-0.584-1.79-1.17-3.58-1.75-5.38-0.413-1.2-0.825-2.39-1.25-3.62h-2c-0.712-1.42-0.712-1.42-1.44-2.88-7.13-12.4-18.1-20.5-31-26.1-4.71-2.17-7.13-4.25-9.58-9.02-1.86-6.34-2.27-14.7 0.188-20.9 3.46-5.97 7.21-10.7 14.1-12.8 11-1.25 19.8 0.998 29.8 5.69 1.66 0.678 3.33 1.35 5 2v2c1.65 0.66 3.3 1.32 5 2v2c0.572 0.258 1.14 0.516 1.73 0.781 2.48 1.33 4.4 2.87 6.52 4.72 1.06 0.913 1.06 0.913 2.14 1.84 1.61 1.66 1.61 1.66 1.61 3.66 0.884 0.381 0.884 0.381 1.79 0.77 5.15 2.86 8.71 8.41 12 13.2 1.84 3.09 1.84 3.09 4.19 4.06 12.3 19.6 16.6 40.2 17.6 63 0.066 1.59 0.066 1.59 0.133 3.21 0.107 2.59 0.213 5.19 0.316 7.78 1.04-0.0111 2.08-0.0222 3.16-0.0336 9.81-0.101 19.6-0.176 29.4-0.225 5.05-0.0261 10.1-0.0615 15.1-0.118 4.87-0.0543 9.74-0.0842 14.6-0.0972 1.86-0.00924 3.72-0.0273 5.57-0.0543 2.6-0.0363 5.2-0.0413 7.81-0.039 0.767-0.018 1.53-0.036 2.33-0.0545 4 0.0385 5.73 0.439 8.86 3.01 3.98 4.97 5.62 8.76 6.18 15.1 0.0774 0.801 0.155 1.6 0.235 2.43 1.28 14.5 1.61 29.2 2.15 43.8 0.245 6.63 0.501 13.3 0.757 19.9 0.0869 2.28 0.171 4.55 0.254 6.83 0.258 6.91 0.575 13.8 1.03 20.7 0.466 7.17 0.729 14.3 0.902 21.5 0.0516 2.14 0.107 4.29 0.163 6.43 0.0802 3.06 0.159 6.12 0.237 9.18 0.555 21.7 1.12 43.3 2.31 65 0.62 11.4 1.06 22.7 1.41 34.1 0.0333 1.08 0.0333 1.08 0.0673 2.18 0.223 7.26 0.437 14.5 0.641 21.8 0.0582 2.06 0.118 4.11 0.178 6.17 0.0734 2.53 0.144 5.06 0.211 7.59 0.146 5 0.33 9.96 0.851 14.9 0.813 8.28 0.914 16.6 1.15 24.9 0.0896 3.19 0.183 6.39 0.278 9.58 0.201 6.78 0.396 13.6 0.591 20.3 0.226 7.86 0.454 15.7 0.688 23.6 0.0916 3.12 0.18 6.25 0.267 9.37 0.265 9.14 0.616 18.2 1.33 27.4 0.46 6.24 0.476 12.5 0.508 18.7 0.0117 1.58 0.0324 3.16 0.0615 4.74 0.0424 2.32 0.0588 4.64 0.0691 6.95 0.0175 0.706 0.035 1.41 0.0531 2.14-0.0216 4.83-0.0216 4.83-2.05 7-3.24 1.76-6.13 1.73-9.72 1.69-0.74 0.00376-1.48 0.00752-2.24 0.0114-2.49 0.00898-4.99-0.00353-7.48-0.0158-1.8 0.00202-3.6 0.00536-5.4 0.00991-4.96 0.00867-9.92-0.00144-14.9-0.0145-5.34-0.0109-10.7-0.00449-16-2.16e-4 -10.5 0.00564-20.9-0.0047-31.4-0.0203-12.2-0.0175-24.4-0.019-36.5-0.0196-21.7-0.00169-43.5-0.0175-65.2-0.0415-21.1-0.0233-42.2-0.0374-63.3-0.041-1.95-3.34e-4 -1.95-3.34e-4 -3.94-6.75e-4 -2.62-4.43e-4 -5.24-8.85e-4 -7.86-0.00133-1.29-2.2e-4 -2.58-4.39e-4 -3.91-6.65e-4 -1.93-3.24e-4 -1.93-3.24e-4 -3.9-6.55e-4 -20.1-0.0037-40.2-0.0151-60.3-0.0275-7.29-0.00444-14.6-0.00788-21.9-0.0106-11.6-0.00443-23.1-0.0122-34.7-0.0268-5.29-0.00662-10.6-0.0117-15.9-0.0125-4.83-7.83e-4 -9.66-0.00615-14.5-0.0153-1.75-0.00252-3.51-0.00334-5.26-0.00234-2.37 0.00109-4.74-0.00389-7.12-0.0105-0.693 0.00177-1.39 0.00354-2.1 0.00536-4.72-0.0226-4.72-0.0226-6.94-1.14-0.899-3.28-1.11-6.33-1.04-9.71 0.0169-0.905 0.0337-1.81 0.0511-2.74 0.0239-0.968 0.0478-1.94 0.0724-2.93 0.0212-1.01 0.0425-2.02 0.0644-3.06 0.0462-2.14 0.0951-4.27 0.147-6.41 0.0773-3.24 0.145-6.48 0.211-9.72 0.0463-2.08 0.0931-4.17 0.141-6.25 0.0198-0.956 0.0397-1.91 0.0602-2.9 0.113-4.49 0.324-8.94 0.771-13.4 0.668-6.87 0.883-13.8 1.12-20.7 0.0859-2.49 0.176-4.98 0.267-7.47 0.225-6.21 0.444-12.4 0.664-18.6 0.214-6.07 0.432-12.1 0.653-18.2 0.0313-0.86 0.0627-1.72 0.095-2.61 0.543-14.8 1.25-29.5 2.05-44.2 0.507-9.38 0.901-18.7 1.18-28.1 0.282-9.11 0.763-18.2 1.44-27.2 1.32-17.8 1.8-35.7 2.36-53.5 0.0392-1.2 0.0785-2.39 0.119-3.62 0.0737-2.26 0.144-4.51 0.211-6.77 0.146-4.44 0.325-8.83 0.867-13.2 0.703-5.78 0.804-11.6 0.965-17.4 0.0775-2.55 0.155-5.1 0.233-7.65 0.0396-1.34 0.0791-2.68 0.118-4.02 0.204-6.92 0.422-13.8 0.645-20.8 0.0331-1.03 0.0331-1.03 0.0669-2.08 0.424-13 1.04-26.1 1.8-39.1 0.455-8.02 0.748-16 0.845-24 0.0194-1.31 0.0194-1.31 0.0393-2.65 0.0617-4.2 0.101-8.39 0.0957-12.6 0.0946-13.2 0.0946-13.2 4.14-18.8 4.55-4.21 8.61-4.88 14.6-4.86 0.799-0.00859 1.6-0.0172 2.42-0.026 2.63-0.025 5.26-0.0294 7.89-0.034 1.83-0.0143 3.66-0.0301 5.49-0.0472 4.81-0.0418 9.61-0.0668 14.4-0.0875 7.71-0.0358 15.4-0.0967 23.1-0.158 2.7-0.0191 5.39-0.0308 8.09-0.0414 1.64-0.0102 3.28-0.0206 4.93-0.0311 0.755-0.00104 1.51-0.00208 2.29-0.00316 3.43 0.279 3.43 0.279 6.27-1.15 0.193-1.91 0.324-3.82 0.43-5.73 0.0714-1.19 0.143-2.38 0.216-3.6 0.0756-1.27 0.151-2.54 0.229-3.85 0.651-9.88 1.43-19.3 4.12-28.8 0.253-1.04 0.505-2.08 0.766-3.15 3.67-13.8 11.7-27.2 21.2-37.8h2c0.227-0.536 0.454-1.07 0.688-1.62 3.32-6.01 7.93-9.91 13.4-13.8 0.659-0.474 1.32-0.947 2-1.44 13.6-9.74 31.9-22.4 48.9-12.1zm-150 164c-0.0976 1.88-0.124 3.76-0.123 5.64-0.00199 1.23-0.00398 2.46-0.00603 3.73 0.00285 1.38 0.0058 2.77 0.00883 4.15-4.36e-4 1.46-0.00131 2.91-0.00259 4.37-0.00225 4.02 0.00178 8.04 0.00678 12.1 0.0043 4.33 0.00286 8.66 0.0021 13-5.25e-4 7.51 0.00262 15 0.00824 22.5 0.00811 10.9 0.0107 21.7 0.012 32.6 0.00219 17.6 0.00885 35.2 0.0183 52.8 0.00917 17.1 0.0162 34.2 0.0205 51.3 2.68e-4 1.06 5.36e-4 2.13 8.12e-4 3.23 0.00208 8.33 0.00404 16.7 0.00595 25 0.00944 40.9 0.0296 81.7 0.0482 123h334c0.0291-62.7 0.0291-62.7 0.0488-125 0.00196-8.44 0.00398-16.9 0.0061-25.3 2.64e-4 -1.06 5.27e-4 -2.12 7.99e-4 -3.21 0.00436-17.1 0.0122-34.2 0.0214-51.3 0.00934-17.5 0.0149-35.1 0.0169-52.6 0.00138-10.8 0.00573-21.7 0.0138-32.5 0.00527-7.42 0.00689-14.8 0.00558-22.3-6.44e-4 -4.29 3.77e-4 -8.58 0.0057-12.9 0.00483-3.92 0.00513-7.84 0.00169-11.8-4.26e-4 -1.42 8.7e-4 -2.85 0.00398-4.27 0.00396-1.92 0.00127-3.85-0.00184-5.77 3.8e-4 -1.07 7.59e-4 -2.14 0.00115-3.25 0.145-2.34 0.145-2.34-1.12-3.39-2.82-0.105-5.61-0.141-8.44-0.125-0.874 0.00338-1.75 0.00677-2.65 0.0103-7.56 0.0566-15.1 0.242-22.7 0.49-1.09 0.0308-2.19 0.0616-3.31 0.0933-5.94 0.22-11.2 0.838-16.9 2.53-0.15 2.96-0.296 5.92-0.438 8.88-0.0466 0.95-0.0931 1.9-0.141 2.88-0.294 6.36-0.485 12.7-0.605 19.1-0.0324 1.53-0.065 3.06-0.0979 4.59-0.049 2.28-0.0933 4.57-0.122 6.85-0.0273 2.16-0.0722 4.32-0.12 6.48-0.0198 1.25-0.0396 2.51-0.0601 3.8-0.789 6.54-3.83 9.99-8.42 14.5-0.33 0.99-0.66 1.98-1 3-6.75 3.6-15.3 4.68-22.8 3.31-5.09-2.06-9.41-4.49-12.2-9.31-1.57-4.09-2.26-7.53-2.3-11.9-0.0166-1.14-0.0333-2.28-0.0504-3.45-0.0126-1.82-0.0126-1.82-0.0255-3.67-0.017-1.25-0.034-2.51-0.0515-3.8-0.044-3.32-0.0804-6.64-0.112-9.96-0.0459-4.69-0.102-9.39-0.163-14.1-0.0321-2.5-0.0589-4.99-0.0802-7.49-0.0135-1.12-0.027-2.24-0.0409-3.4-0.00951-0.992-0.019-1.98-0.0288-3.01 0.105-2.21 0.105-2.21-1.14-3.24-1.56-0.0981-3.13-0.126-4.7-0.127-1.02-0.00282-2.03-0.00564-3.08-0.00854-1.69 0.00304-1.69 0.00304-3.41 0.00613-1.77-0.00263-1.77-0.00263-3.57-0.00531-3.24-0.00366-6.48-0.00278-9.71 3.79e-4 -3.38 0.00252-6.76 1.86e-4 -10.1-0.00139-5.68-0.00182-11.4 5.84e-4 -17 0.00534-6.58 0.00544-13.2 0.00368-19.7-0.00183-5.64-0.00453-11.3-0.00518-16.9-0.00256-3.37 0.00156-6.74 0.00176-10.1-0.00154-3.76-0.00253-7.51 0.00132-11.3 0.0069-1.12-0.00202-2.25-0.00405-3.4-0.00613-1.02 0.00282-2.04 0.00564-3.09 0.00854-0.889 3.77e-4 -1.78 7.54e-4 -2.69 0.00114-2.19-0.0115-2.19-0.0115-4.13 1.13 0.00444 0.575 0.00888 1.15 0.0135 1.74 0.0446 6.04 0.0746 12.1 0.0964 18.1 0.01 2.25 0.0236 4.49 0.041 6.74 0.0245 3.25 0.0357 6.49 0.0444 9.74 0.0103 0.988 0.0206 1.98 0.0313 2.99 0.00286 18.2 0.00286 18.2-5.23 24.7v2c-0.593 0.286-1.19 0.572-1.8 0.867-2.43 1.2-2.43 1.2-5.45 3.26-6.39 3.18-13.8 2.73-20.8 1.88-3.13-1.27-5.39-2.9-8-5-1.49-0.495-1.49-0.495-3-1-1.06-1.75-1.06-1.75-2-4-0.351-0.722-0.701-1.44-1.06-2.19-2.42-7.27-2.1-15.3-2.18-22.8-0.0329-2.09-0.0661-4.19-0.0996-6.28-0.0476-3.27-0.0922-6.54-0.131-9.81-0.0396-3.18-0.0911-6.35-0.144-9.53-0.00841-0.979-0.0168-1.96-0.0255-2.97-0.025-1.37-0.025-1.37-0.0504-2.76-0.0103-0.799-0.0206-1.6-0.0312-2.42-0.307-2.49-0.888-4.11-2.27-6.2-2.89-0.715-2.89-0.715-6.38-0.742-0.657-0.0285-1.31-0.057-1.99-0.0864-2.21-0.0845-4.42-0.133-6.62-0.171-0.779-0.0145-1.56-0.0291-2.36-0.0441-4.98-0.0803-9.97-0.0988-15-0.0863-2.61 0.00547-5.22-3.69e-5 -7.82-0.00635-1.66 6.59e-4 -3.32 0.00194-4.98 0.00391-0.779-0.00202-1.56-0.00405-2.36-0.00613-3.56-0.314-3.56-0.314-6.52 1.14z" fill="#000100"/>
<path transform="translate(757 1395)" d="m0 0c0.777-0.0122 1.55-0.0245 2.36-0.0371 9.68-0.0244 16.4 2.99 23.8 9.22 2.77 2.93 5.24 6.05 7.68 9.26 1.49 1.95 2.99 3.89 4.51 5.82 3 3.83 5.97 7.67 8.95 11.5 1.88 2.43 3.77 4.86 5.67 7.29 0.62 0.795 1.24 1.59 1.88 2.41 1.18 1.51 2.35 3.01 3.53 4.52 3.21 4.12 6.37 8.28 9.47 12.5 1.91 2.45 4.11 4.54 6.33 6.71 1.12 1.22 2.22 2.45 3.31 3.69 0.512 0.581 1.02 1.16 1.55 1.76 1.14 1.55 1.14 1.55 1.14 3.55h2c0.33 1.32 0.66 2.64 1 4h2c1.66 2.08 1.66 2.08 3.5 4.81 0.608 0.893 1.22 1.79 1.84 2.71 1.22 1.83 2.44 3.65 3.66 5.48 0.00365-0.984 0.00729-1.97 0.011-2.98 0.037-9.3 0.0949-18.6 0.173-27.9 0.0394-4.78 0.0716-9.56 0.0871-14.3 0.0152-4.62 0.0497-9.23 0.0973-13.8 0.0148-1.76 0.0227-3.51 0.0236-5.27 0.00238-2.47 0.0295-4.94 0.0622-7.41-0.00755-1.08-0.00755-1.08-0.0152-2.18 0.139-6.85 2.59-12 7.25-16.9 8.52-5.47 20.1-5.37 29.8-3.44 5.79 2.17 8.64 6 11.5 11.3 2.32 8.45 2.29 17.2 2.26 25.9 0.00272 1.35 0.00628 2.7 0.0106 4.05 0.00903 3.63 0.00562 7.26-7.58e-4 10.9-0.00511 3.82-3.55e-4 7.65 0.00277 11.5 0.00363 6.42-0.00112 12.8-0.0107 19.3-0.0109 7.39-0.00736 14.8 0.00365 22.2 0.00912 6.38 0.0103 12.8 0.00512 19.1-0.0031 3.79-0.0036 7.59 0.00307 11.4 0.00584 3.57 0.00166 7.14-0.00979 10.7-0.00384 1.91 0.00198 3.82 0.00826 5.74-0.105 21.9-0.105 21.9-6.83 30-1.44 1.29-1.44 1.29-3.44 1.29-0.34 0.897-0.34 0.897-0.688 1.81-1.77 2.96-3.16 3.74-6.31 5.19-8.64 1.24-20 1.51-27.9-2.41-4.54-3.45-7.73-8.05-11.1-12.6-1.17-1.37-2.36-2.72-3.56-4.06-2.44-2.94-2.44-2.94-2.44-4.94h-2c-0.33-1.32-0.66-2.64-1-4h-2c-1.52-2.03-2.93-4.07-4.31-6.19-2.9-4.43-5.89-8.07-9.69-11.8-1.11-1.55-2.18-3.13-3.19-4.75-1.88-3.2-1.88-3.2-4.81-5.25-0.495-0.949-0.99-1.9-1.5-2.88-2.66-4.93-6.62-8.75-10.5-12.8-2.05-2.36-2.05-2.36-2.05-4.36-1.49-0.495-1.49-0.495-3-1-1.37-1.97-2.7-3.98-4-6-0.577-0.578-1.15-1.15-1.75-1.75-0.413-0.412-0.825-0.825-1.25-1.25v-2h-2c-1.58-2.24-2.96-4.58-4.37-6.93-1.88-2.38-2.75-2.5-5.63-3.07 0.00444 0.987 0.00888 1.97 0.0135 2.99 0.0406 9.31 0.0706 18.6 0.0902 27.9 0.0104 4.79 0.0246 9.58 0.0473 14.4 0.0218 4.62 0.0337 9.25 0.0389 13.9 0.00369 1.76 0.0109 3.52 0.0217 5.28 0.0146 2.47 0.0165 4.94 0.0156 7.42 0.00719 0.723 0.0144 1.45 0.0218 2.19-0.0257 6.38-1.11 12.1-5 17.2-0.469 0.645-0.938 1.29-1.42 1.95-3.99 3.92-8.1 5.17-13.6 5.27-0.681-0.0102-1.36-0.0203-2.06-0.0308-1.06-0.0114-1.06-0.0114-2.15-0.0229-7.48-0.236-11.9-2.32-17.3-7.23-8.95-9.82-6.84-25-6.83-37.4-3e-3 -1.37-0.00641-2.74-0.0102-4.1-0.00874-3.67-0.0112-7.35-0.0118-11-7.16e-4 -2.3-0.00286-4.6-0.0055-6.9-0.00921-8.04-0.0133-16.1-0.0125-24.1 6.02e-4 -7.47-0.00999-14.9-0.0257-22.4-0.0131-6.44-0.0184-12.9-0.0178-19.3 2.54e-4 -3.84-0.00255-7.68-0.0132-11.5-0.00971-3.6-0.00974-7.21-0.00248-10.8 0.00154-1.94-0.00678-3.89-0.0154-5.83 0.0375-10.5 1.26-18.6 8.26-26.7 6.26-4.09 12.6-4.18 19.9-4.19z" fill="#000100"/>
<path transform="translate(248,1411)" d="m0 0c0.33 0.66 0.66 1.32 1 2 0.99 0.33 1.98 0.66 3 1 1.24 1.44 2.48 2.89 3.66 4.38 1.49 1.87 1.49 1.87 4.09 4.31 2.25 2.31 2.25 2.31 3.25 5.31h2c1.43 1.97 2.72 3.94 4 6 0.383 0.58 0.766 1.16 1.16 1.76 8.35 12.8 12.8 26.1 15.6 41.1 0.128 0.681 0.256 1.36 0.387 2.06 1.47 8.57 0.928 16.4-0.825 24.9-0.18 0.878-0.36 1.76-0.546 2.66-1.49 6.92-3.62 13.2-6.77 19.5-0.288 0.591-0.577 1.18-0.874 1.79-2 4.09-4.05 8.16-6.13 12.2-0.668 1.33-1.34 2.67-2 4h-2c-0.235 0.71-0.469 1.42-0.711 2.15-7.47 16.5-29.5 28.8-45.3 35.8-3.3 1.15-6.63 2.1-10 3-1.66 0.501-1.66 0.501-3.36 1.01-13.7 3.7-27.6 3.78-41.5 1.68-1.18-0.176-1.18-0.176-2.39-0.356-5.22-0.861-9.91-2.31-14.8-4.33-1.47-0.578-1.47-0.578-2.97-1.17-0.835-0.336-1.67-0.673-2.53-1.02-1.28-0.516-1.28-0.516-2.59-1.04-0.629-0.254-1.26-0.508-1.91-0.77v-2l-2.38-0.438c-2.62-0.562-2.62-0.562-4.62-1.56v-2c-0.726-0.258-1.45-0.516-2.2-0.781-2.92-1.27-5.11-2.76-7.61-4.72-0.79-0.608-1.58-1.22-2.39-1.84-0.888-0.82-0.888-0.82-1.79-1.66v-2c-1.32-0.66-2.64-1.32-4-2v-2c-0.99-0.33-1.98-0.66-3-1-5.64-5.95-10-12.8-14-20-0.345-0.62-0.691-1.24-1.05-1.88-11.3-21.5-14.2-45.3-8.95-69.1 0.627-2.01 1.29-4.01 2-6 0.344-0.981 0.688-1.96 1.04-2.97 3.01-8.12 6.69-15.5 11-23h2c0.186-0.66 0.371-1.32 0.562-2 3.19-6.65 8.76-11.5 14.4-16 0.862-0.918 0.862-0.918 1.74-1.86 2.81-2.67 5.93-4.66 9.2-6.71 0.608-0.386 1.22-0.772 1.84-1.17 1.19-0.754 2.39-1.5 3.58-2.25 1.41-0.877 2.81-1.77 4.2-2.67 29.6-16.4 83.7-9.92 109 9.65zm-94 40v2c-0.99 0.33-1.98 0.66-3 1-1.8 2.14-1.8 2.14-3.5 4.75-0.588 0.861-1.18 1.72-1.78 2.61-0.567 0.871-1.13 1.74-1.72 2.64-0.522 0.802-1.04 1.6-1.58 2.43-6.13 11.1-7.52 25.1-4.04 37.3 0.992 2.9 2.21 5.59 3.62 8.31h2c0.101 0.568 0.201 1.14 0.305 1.72 2.17 7.12 8.54 12.5 14.7 16.3h2v2c15.2 6.1 29.1 8.11 44.8 1.88 1.4-0.611 2.8-1.23 4.19-1.88v-2c0.552-0.0735 1.1-0.147 1.67-0.223 3.21-1.07 5.09-2.94 7.58-5.21 1.34-1.2 1.34-1.2 2.7-2.43 2.28-1.88 2.28-1.88 2.05-4.13h2c0.801-1.35 1.59-2.7 2.38-4.06 0.661-1.13 0.661-1.13 1.34-2.29 5.35-11 5.71-26 2.29-37.7-4.23-11.6-12.6-22.7-23.9-28.1-0.678-0.291-1.36-0.583-2.05-0.883-1.2-0.557-2.39-1.11-3.62-1.69-16.8-6.52-34.3-3.79-48.4 7.69z" fill="#000100"/>
<path transform="translate(964 1396)" d="m0 0c1.13-0.00847 2.26-0.0169 3.42-0.0257 3.72-0.0234 7.45-0.0244 11.2-0.0232 2.59-0.0071 5.19-0.0148 7.78-0.0231 5.43-0.0134 10.9-0.0152 16.3-0.00916 6.26 0.00663 12.5-0.0162 18.8-0.0533 6.05-0.0345 12.1-0.041 18.1-0.0369 2.56-0.00169 5.13-0.0113 7.69-0.0291 3.59-0.0222 7.18-0.0125 10.8 0.00511 1.58-0.0199 1.58-0.0199 3.19-0.0402 6.9 0.0782 11.9 1.43 17.5 5.66 5.14 5.53 6.28 10.4 6.15 18-0.687 9.23-5.58 14.8-12.2 20.6-3.33 2.48-6.28 2.56-10.3 2.62-1.66 0.0299-1.66 0.0299-3.35 0.0604-1.8 0.0251-1.8 0.0251-3.64 0.0506-1.24 0.0208-2.49 0.0416-3.77 0.063-2.64 0.0433-5.28 0.0849-7.92 0.123-3.99 0.0581-7.97 0.124-12 0.191-13 0.211-26 0.36-39 0.307-0.33 6.6-0.66 13.2-1 20 2.49 0.0606 4.98 0.121 7.54 0.184 30.8 0.761 30.8 0.761 43.4 1.25 0.842 0.027 1.68 0.054 2.55 0.0818 4.81 0.208 8.93 0.975 13.5 2.48v2c0.594 0.0645 1.19 0.129 1.8 0.195 3.1 1.14 3.79 2.84 5.39 5.68 0.509 0.884 1.02 1.77 1.54 2.68 2.93 5.64 2.97 11.2 2.27 17.4-1.25 3.34-2.94 6.1-5 9-0.959 1.45-0.959 1.45-1.94 2.94-5.85 5.85-16.4 5.11-24.2 5.18-2.23-1.56e-4 -4.46-0.00567-6.7-0.0159-1.18-0.00141-2.37-0.00283-3.59-0.00429-3.75-0.00556-7.5-0.0181-11.2-0.0309-2.56-0.00502-5.11-0.00958-7.67-0.0137-6.24-0.0101-12.5-0.0297-18.7-0.0488 0.495 11.4 0.495 11.4 1 23 2.08 0.0251 4.16 0.0501 6.3 0.0759 6.89 0.0837 13.8 0.172 20.7 0.263 4.17 0.055 8.35 0.108 12.5 0.158 4.03 0.0479 8.07 0.1 12.1 0.156 1.53 0.0203 3.07 0.039 4.6 0.0561 21 0.237 21 0.237 28.8 5.29v2c1.32 0.66 2.64 1.32 4 2v2h2c3.54 9.3 3.54 15.7 0 25h-2c-0.206 0.701-0.412 1.4-0.625 2.12-1.87 3.91-3.64 6.67-7.38 8.88-12.1 2.96-25 2.29-37.3 2.27-2.13 0.00135-4.26 0.00329-6.39 0.0058-4.44 0.00293-8.87-0.00128-13.3-0.0107-5.66-0.0114-11.3-0.0048-17 0.00714-4.39 0.00725-8.77 0.00492-13.2-2.56e-4 -2.09-0.00133-4.18 2.76e-4 -6.26 0.00496-2.92 0.00512-5.84-0.00272-8.76-0.0138-0.848 0.00405-1.7 0.0081-2.57 0.0123-14.9-0.104-14.9-0.104-20.1-4.96-0.701-1.09-1.4-2.19-2.12-3.31-0.722-0.969-1.44-1.94-2.19-2.94-5.1-9.35-4.11-23.4-4.09-33.7-0.00436-1.39-0.00955-2.77-0.0155-4.16-0.0132-3.71-0.014-7.43-0.0114-11.1 0.00108-3.12-0.00384-6.23-0.00861-9.35-0.011-7.35-0.0116-14.7-0.00549-22.1 0.00606-7.56-0.00633-15.1-0.0276-22.7-0.0176-6.52-0.0236-13-0.0204-19.6 0.00181-3.88-7.53e-4 -7.77-0.0147-11.6-0.0126-3.65-0.0106-7.29 0.00241-10.9 0.00347-1.96-0.00777-3.93-0.0196-5.89 0.0791-13.4 0.0791-13.4 3.4-19 0.99-0.33 1.98-0.66 3-1 0.155-0.928 0.155-0.928 0.312-1.88 0.688-2.12 0.688-2.12 3.03-3.73 5.04-1.92 9.59-1.83 14.9-1.81z" fill="#000100"/>
<path transform="translate(354 1399)" d="m0 0c5.94 5.94 7.25 11.2 7.36 19.4-1.47e-4 1.57-0.00575 3.14-0.0159 4.72-0.00146 0.864-0.00292 1.73-0.00443 2.62-0.00379 1.87-0.00989 3.73-0.0181 5.6-0.0128 2.96-0.0193 5.92-0.0241 8.88-0.0133 7.35-0.0375 14.7-0.0614 22.1-0.0198 6.22-0.0354 12.4-0.0456 18.7-0.00645 2.91-0.019 5.81-0.0317 8.72-0.00364 1.8-0.00699 3.59-0.01 5.39-0.00775 1.2-0.00775 1.2-0.0157 2.42-7.35e-4 7.91 0.26 15.1 3.99 22.2 0.513 1.01 1.03 2.02 1.55 3.06 1.48 2.74 1.48 2.74 4.57 4.5v2c1.33 0.669 2.67 1.34 4 2 1.25 0.621 1.25 0.621 2.52 1.25 5.66 2.71 10.2 4.44 16.5 4.75 1.08 0.058 1.08 0.058 2.18 0.117 7.58 0.236 15.4-0.848 21.8-5.12 8.97-9.72 10.2-20.2 10.1-32.9 0.00187-0.952 0.00374-1.9 0.00566-2.89 0.00398-2.06 0.00608-4.11 0.00646-6.17 0.00344-4.38 0.0248-8.76 0.0452-13.1 0.0379-8.14 0.0693-16.3 0.0672-24.4-7.88e-4 -5.68 0.0226-11.4 0.0619-17 0.0104-2.16 0.012-4.31 0.00435-6.47-0.00966-3.02 0.0116-6.04 0.0397-9.06-0.0102-0.881-0.0204-1.76-0.0309-2.67 0.126-7.57 2.8-13.2 7.92-18.8 8.46-4.81 19.9-4.82 29.2-2.81 6.51 2.29 10.2 5.22 13.6 11.2 0.898 2.87 1.13 5.45 1.13 8.44 0.00282 0.884 0.00564 1.77 0.00854 2.68-0.00304 1.44-0.00304 1.44-0.00613 2.92 0.00263 1.53 0.00263 1.53 0.00531 3.09 0.00441 3.38 0.00148 6.75-0.00189 10.1 6.74e-4 2.35 0.00164 4.7 0.0029 7.05 0.00148 4.93-6.72e-4 9.86-0.00534 14.8-0.00568 6.3-0.00243 12.6 0.00357 18.9 0.00362 4.85 0.00246 9.71-1.28e-4 14.6-6.65e-4 2.32 1.45e-4 4.65 0.00248 6.97 0.00255 3.26-0.00135 6.51-0.0069 9.77 0.00202 0.953 0.00405 1.91 0.00613 2.89-0.0662 21.1-7.96 40.1-22.1 55.8-8.55 8-8.55 8-13 8v2c-24.4 12.9-50.1 18.1-77.2 10.4-21.6-7.24-39.2-22.2-49.6-42.5-2.31-5.45-3.85-11.1-5.21-16.8-0.169-0.715-0.338-1.43-0.512-2.17-1.37-6.26-1.78-12.2-1.76-18.6-0.00511-1.02-0.0102-2.05-0.0155-3.1-0.0138-3.35-0.0129-6.71-0.0106-10.1-0.00389-2.35-0.00823-4.69-0.013-7.04-0.00744-4.9-0.00719-9.8-0.00191-14.7 0.00581-6.27-0.0112-12.5-0.0343-18.8-0.0147-4.84-0.0156-9.68-0.0125-14.5-5.13e-4 -2.31-0.00574-4.63-0.0158-6.94-0.0124-3.23-0.00558-6.47 0.00601-9.7-0.00764-0.95-0.0153-1.9-0.0232-2.88 0.0443-5.6 0.814-9.5 3.4-14.5h2c0.206-0.598 0.413-1.2 0.625-1.81 2.15-3.42 5.37-4.53 9.12-5.76 8.87-1.69 20.2-1.62 28 3.32z" fill="#000100"/>
<path transform="translate(533 1396)" d="m0 0c1.22-0.0099 2.44-0.0198 3.69-0.03 1.34 0.00424 2.67 0.0088 4.01 0.0136 1.42-0.00571 2.84-0.0127 4.25-0.0208 3.84-0.0179 7.68-0.0168 11.5-0.0111 3.21 0.00309 6.42-3e-3 9.63-0.00904 7.58-0.014 15.2-0.0125 22.7-0.0011 7.81 0.0115 15.6-0.0026 23.4-0.0294 6.71-0.0222 13.4-0.0288 20.1-0.0229 4 0.00337 8.01 9.76e-4 12-0.0163 3.77-0.0155 7.53-0.0115 11.3 0.00731 1.38 0.00368 2.76 6e-4 4.14-0.00989 13-0.0913 13-0.0913 19 4.52 1.96 2.44 1.96 2.44 3.38 5 0.723 1.27 0.723 1.27 1.46 2.56 2.47 5.18 3.04 10.2 1.52 15.8-2.23 6.21-5 11.6-10.4 15.6-10.6 3.78-21.8 3.36-32.9 3.19-1.67-0.0151-3.34-0.0288-5.01-0.041-4.04-0.0326-8.08-0.0841-12.1-0.146 0.00524 1.16 0.0105 2.31 0.0159 3.51 0.111 27.4 0.00587 54.8-0.279 82.2-0.0342 3.33-0.0614 6.66-0.0827 9.99-0.0258 3.97-0.0661 7.94-0.117 11.9-0.0165 1.47-0.0282 2.94-0.0345 4.42-0.0869 18.3-0.0869 18.3-6.5 25h-2c-0.25 0.624-0.5 1.25-0.758 1.89-1.89 3.21-4.09 3.56-7.55 4.56-9.5 1.93-16.5 0.632-24.7-4.45v-2c-0.99-0.33-1.98-0.66-3-1-1.13-1.57-1.13-1.57-2.12-3.56-0.333-0.641-0.665-1.28-1.01-1.94-2.47-7.11-2.03-15-2.07-22.4-0.0099-1.17-0.0198-2.34-0.03-3.55-0.0315-3.85-0.0563-7.7-0.0811-11.6-0.0206-2.68-0.0415-5.36-0.063-8.04-0.0498-6.32-0.0948-12.6-0.138-19-0.0495-7.2-0.104-14.4-0.16-21.6-0.114-14.8-0.22-29.6-0.323-44.4-0.826 0.0133-0.826 0.0133-1.67 0.0269-5.74 0.0887-11.5 0.149-17.2 0.193-2.14 0.0201-4.28 0.0474-6.42 0.082-3.08 0.0487-6.17 0.0712-9.25 0.0889-0.953 0.0206-1.91 0.0413-2.89 0.0626-5.79 0.00194-9.16-0.534-13.5-4.45v-2c-1.32-0.66-2.64-1.32-4-2v-2h-2c-4.57-11.3-4.57-17.7 0-29h2c0.206-0.598 0.413-1.2 0.625-1.81 3.04-4.84 8.2-5.56 13.6-5.58z" fill="#000100"/>
<path transform="translate(1129 1396)" d="m0 0c1.19-0.00716 2.38-0.0143 3.6-0.0217 1.31-0.00269 2.61-0.00538 3.96-0.00815 1.39-0.00627 2.78-0.0129 4.16-0.0199 4.56-0.021 9.12-0.0314 13.7-0.0414 1.57-0.00405 3.14-0.00817 4.71-0.0124 7.38-0.019 14.8-0.0333 22.1-0.0416 8.51-0.00977 17-0.0361 25.5-0.0765 6.58-0.0302 13.2-0.045 19.8-0.0483 3.93-0.00235 7.86-0.0113 11.8-0.0365 3.7-0.0233 7.4-0.0275 11.1-0.0172 2 7.3e-4 4-0.0183 6-0.0381 8.27 0.0478 13 0.849 19.1 6.63 4.23 6.95 5.67 13.9 3.75 21.9-0.876 2.75-1.89 5.34-3 8h-2c-0.33 1.32-0.66 2.64-1 4h-2c-0.33 0.99-0.66 1.98-1 3-9.07 4.72-20.8 3.33-30.7 3.19-1.78-0.0151-3.56-0.0288-5.34-0.041-4.32-0.0328-8.65-0.0844-13-0.146 0.00369 0.63 0.00737 1.26 0.0112 1.91 0.0885 15.4 0.155 30.7 0.196 46.1 0.0206 7.43 0.0486 14.9 0.0945 22.3 0.04 6.48 0.0657 13 0.0746 19.4 0.00519 3.43 0.0173 6.85 0.0466 10.3 0.0291 3.83 0.033 7.67 0.0312 11.5 0.0144 1.12 0.0288 2.25 0.0436 3.4-0.0464 8.92-1.7 16.4-7.87 23.1-5.37 5.18-10.8 6.62-18 6.56-0.754-5e-3 -1.51-0.00999-2.29-0.0151-6.98-0.219-10.9-2.09-15.8-6.98-8.01-8.83-6.64-21.3-6.7-32.5-0.0099-1.14-0.0198-2.29-0.03-3.46-0.0313-3.74-0.0563-7.48-0.0811-11.2-0.0206-2.61-0.0416-5.21-0.063-7.82-0.0497-6.14-0.0947-12.3-0.138-18.4-0.0496-6.99-0.104-14-0.16-21-0.113-14.4-0.22-28.7-0.323-43.1-0.826 0.0167-0.826 0.0167-1.67 0.0336-5.74 0.111-11.5 0.186-17.2 0.241-2.14 0.0251-4.28 0.0592-6.42 0.103-3.08 0.0608-6.17 0.0891-9.25 0.111-1.43 0.0387-1.43 0.0387-2.89 0.0782-4.48 0.00188-7.54-0.0756-11.1-2.99-7.71-8.12-8.1-15.3-7.82-26.2 0.412-7.04 2.59-11.4 7.37-16.4 3.16-1.05 5.39-1.13 8.7-1.15z" fill="#000100"/>
<path transform="translate(650 15.2)" d="m0 0c8.8 6.96 13.3 19.1 14.6 29.9-0.989 10-5.11 18-11.4 25.8-0.763 0.949-1.53 1.9-2.31 2.88-6.71 5.3-15.2 7.61-23.7 7.12-11.3-2.29-19.1-5.66-26-15-5.28-8.87-8.56-17.7-6.35-28 2.53-9.25 6.15-17.9 14.7-22.9 1.52-0.724 3.07-1.41 4.62-2.06 0.699-0.317 1.4-0.634 2.12-0.961 10.8-4.31 23.9-3.14 33.7 3.21z" fill="#000100"/>
<path transform="translate(66.1 831)" d="m0 0c7.68 6.01 9.98 12.2 11.2 21.8 0.42 8.69-2.52 17.3-7.32 24.5-6.73 5.75-15.4 6.54-24 6-6.44-0.781-10.4-2.32-15-7v-2c-0.99-0.33-1.98-0.66-3-1-1.13-1.93-1.13-1.93-2.12-4.31-0.333-0.78-0.665-1.56-1.01-2.36-3.2-8.58-2.56-17 1.13-25.3 3.03-5.83 8.59-11.4 14.9-13.7 8.87-1.31 17.4-0.968 25.2 3.44z" fill="#000100"/>
<path transform="translate(308 824)" d="m0 0c6.51 3.98 10.6 10.6 12.7 17.9 1.76 8.39-1.44 14.9-5.9 21.8-2.67 3.44-5.46 5.94-9.69 7.19-9.07 1.01-15.4 0.0463-23-5v-2c-0.99-0.33-1.98-0.66-3-1-4.13-5.83-5.4-11.1-4.82-18.2 1.06-6.18 3.81-11.9 7.82-16.8 2.2-0.781 2.2-0.781 4-1v-2c6.57-2.92 15.1-3.4 21.9-0.875z" fill="#000100"/>
<path transform="translate(1318 495)" d="m0 0c2.39 1.2 4.68 2.45 6.93 3.88v2c0.99 0.33 1.98 0.66 3 1 3.66 4.94 5.28 10.9 5 17-1.7 7.96-5.08 14.4-12 19-6.88 3.72-14.5 4.13-22 2v-2c-0.88-0.133-0.88-0.133-1.78-0.27-5.05-1.66-8.25-7.32-11.2-11.5-2.26-6.79-1.95-13.1 1.06-19.6 2.42-4.31 4.78-6.87 8.88-9.62 0.846-0.598 1.69-1.2 2.56-1.81 6.37-2.2 13.1-2.4 19.5-0.0625z" fill="#000100"/>
</svg>
